<?xml version="1.0" encoding="utf-8"?>
<!-- Generator: Adobe Illustrator 22.1.0, SVG Export Plug-In . SVG Version: 6.00 Build 0)  -->
<svg version="1.1" id="Layer_1" xmlns="http://www.w3.org/2000/svg" xmlns:xlink="http://www.w3.org/1999/xlink" x="0px" y="0px"
	 viewBox="0 0 483 483" style="enable-background:new 0 0 483 483;" xml:space="preserve">
<style type="text/css">
	.st0{fill:url(#SVGID_1_);}
	.st1{fill:url(#SVGID_2_);}
</style>
<linearGradient id="SVGID_1_" gradientUnits="userSpaceOnUse" x1="106.2293" y1="402.1134" x2="402.1655" y2="49.4304">
	<stop  offset="0" style="stop-color:#2164AE"/>
	<stop  offset="1" style="stop-color:#BFFF31"/>
</linearGradient>
<path class="st0" d="M384,39.2C384,17.5,366.5,0,344.8,0H137.2C115.5,0,98,17.5,98,39.2v404.7c0,21.6,17.5,39.2,39.2,39.2h207.7
	c21.6,0,39.2-17.5,39.2-39.2V39.2z M253.8,428.9c0,7.1-5.7,12.8-12.8,12.8s-12.8-5.7-12.8-12.8c0-7.1,5.7-12.8,12.8-12.8
	C248.1,416.2,253.8,421.9,253.8,428.9z M256.9,387.3l-5-8.9c0,0,0,0,0,0l-28.1-50.5c4.6-2.8,10.5-1.9,14,2.1l10.2,11.7
	c2.2,2.5,5.7,3.4,8.8,2.2c3.1-1.2,5.2-4.2,5.2-7.5c0-28.7,0-66.1,0-85.3c0-1.7,1.7-2.1,2.6-2.1h3.9c1.3,0,2.6,0.6,2.6,2.1
	c0,4.6-0.3,67-0.3,67.6c0,0.4-0.1,0.7-0.1,1v3.3c0,4.4,3.6,8,8,8s8-3.6,8-8v-19.2c0-0.5,0.7-0.8,1.2-0.8h8c0.2,0,0.4,0,0.6,0.2
	c0.2,0.2,0.3,0.4,0.2,0.6v25.5c0,4.4,3.6,8,8,8s8-3.6,8-8v-19.2c0.1-0.6,0.5-1,1.1-1.1h7.9c0.5,0.1,1,0.5,1,1.1v19.2
	c0,4.4,3.6,8,8,8c4.4,0,8-3.6,8-8v-2.9c-0.1-0.7,0.2-1.5,0.6-2.1c0.3-0.3,0.7-0.4,1.1-0.4l4.2,0c0.7,0,1.3,0.2,1.8,0.7
	s0.8,1.1,0.8,1.8c0,16.5,0,16.8,0,24.9c0,4.3,0,10.8,0,23.1c0,14.7-11.9,26.5-26.5,26.6h-40.9C270.5,401,261.6,395.7,256.9,387.3z
	 M196.7,283c-4.2,0-8.3-1.9-11.1-5c-2.4-2.7-3.5-6.2-3.1-9.8l10.1-88.1h8.4v20.8c0,4.4,3.6,8,8,8s8-3.6,8-8V180h50v20.8
	c0,4.4,3.6,8,8,8s8-3.6,8-8V180h6.9l10.1,88c0.4,3.5-0.8,7.1-3.1,9.7c-2.5,2.7-5.9,4.4-9.6,4.8c0-14.9,0.1-29.2,0.1-31.4
	c0-10.2-8.2-18.1-18.6-18.1h-3.9c-4.9-0.1-9.6,1.8-13.1,5.3c-3.5,3.4-5.5,8.1-5.5,13.1c0,8,0,18.7,0,31.7H196.7z M267,164h-50v-7.8
	c0-12.8,11.2-23.2,25-23.2s25,10.4,25,23.2V164z M363.5,326.4c-0.1-10.2-8.4-18.5-18.6-18.4l-4.2,0c-0.6,0-1.2,0-1.9,0
	c-1-8.5-8.2-15-16.8-15h-7.9c-1.5,0-2.9,0.2-4.4,0.6c-0.9-1.2-1.9-2.2-3.1-3.1c0.8-0.7,1.5-1.4,2.1-2.1c5.4-6,8-14.1,7.1-22.1
	L305,171.1c-0.5-4-3.9-7.1-7.9-7.1h-14v-7.8c0-21.6-18.4-39.2-41-39.2s-41,17.6-41,39.2v7.8h-15.5c-4.1,0-7.5,3.1-7.9,7.1
	l-10.9,95.1c-0.9,8.1,1.7,16.3,7.1,22.4c5.8,6.6,14.2,10.4,23,10.4h49.4v17.1c-10-7.7-24.1-7.5-33.8,0.6l-3.7,2.7
	c-3.1,2.4-4.1,6.7-2.1,10.1l24.8,44.4H114V94h254v280h-4.5c0-12,0-18.5,0-22.7C363.6,343.1,363.6,342.9,363.5,326.4z M137.1,16
	h207.7c12.8,0,23.1,10.7,23.1,23.5V78H114V39.5C114,26.7,124.4,16,137.1,16z M344.9,468H137.1c-12.8,0-23.1-10.7-23.1-23.5V390
	h126.3l2.7,5c1.1,2,2.4,3.9,3.8,5.7c-11.9-2.5-24.1,2.9-30.4,13.3c-6.3,10.4-5.4,23.7,2.3,33.1c7.7,9.4,20.5,13,32,8.9
	c11.5-4.1,19.1-14.9,19.2-27.1c0-5.1-1.3-10.1-3.9-14.4c4.6,1.6,9.4,2.5,14.2,2.5H321c17.5,0,33.1-10.7,39.5-27h7.5v54.5
	C368,457.3,357.6,468,344.9,468z"/>
<linearGradient id="SVGID_2_" gradientUnits="userSpaceOnUse" x1="1.2398" y1="330.735" x2="305.5734" y2="-31.9556">
	<stop  offset="0" style="stop-color:#2164AE"/>
	<stop  offset="1" style="stop-color:#BFFF31"/>
</linearGradient>
<path class="st1" d="M207.2,53h67.5c4.4,0,8-3.6,8-8s-3.6-8-8-8h-67.5c-4.4,0-8,3.6-8,8S202.8,53,207.2,53z"/>
</svg>
