<?xml version="1.0" encoding="utf-8"?>
<!-- Generator: Adobe Illustrator 22.1.0, SVG Export Plug-In . SVG Version: 6.00 Build 0)  -->
<svg version="1.1" id="Capa_1" xmlns="http://www.w3.org/2000/svg" xmlns:xlink="http://www.w3.org/1999/xlink" x="0px" y="0px"
	 viewBox="0 0 512 512" style="enable-background:new 0 0 512 512;" xml:space="preserve">
<style type="text/css">
	.st0{fill:url(#SVGID_1_);}
	.st1{fill:url(#SVGID_2_);}
	.st2{fill:url(#SVGID_3_);}
	.st3{fill:url(#SVGID_4_);}
	.st4{fill:url(#SVGID_5_);}
	.st5{fill:url(#SVGID_6_);}
	.st6{fill:url(#SVGID_7_);}
	.st7{fill:url(#SVGID_8_);}
	.st8{fill:url(#SVGID_9_);}
	.st9{fill:url(#SVGID_10_);}
	.st10{fill:url(#SVGID_11_);}
	.st11{fill:url(#SVGID_12_);}
	.st12{fill:url(#SVGID_13_);}
	.st13{fill:url(#SVGID_14_);}
	.st14{fill:url(#SVGID_15_);}
	.st15{fill:url(#SVGID_16_);}
	.st16{fill:url(#SVGID_17_);}
	.st17{fill:url(#SVGID_18_);}
	.st18{fill:url(#SVGID_19_);}
</style>
<g>
	
		<linearGradient id="SVGID_1_" gradientUnits="userSpaceOnUse" x1="97.2422" y1="59.0019" x2="441.9255" y2="469.7795" gradientTransform="matrix(1 0 0 -1 0 511.8898)">
		<stop  offset="0" style="stop-color:#2164AE"/>
		<stop  offset="1" style="stop-color:#BFFF31"/>
	</linearGradient>
	<path class="st0" d="M383.3,496.7c-6.2-33.1-6.1-67,0.3-100l-21-4c-6.3,32.3-6.9,65.5-2,98H153.5l27.3-82c0.6-1.9,0.7-4,0.2-5.9
		c-1.4-5.7-7.2-9.2-12.9-7.8c-0.5,0.1-40.1,9.7-68.7,0.2c-20.9-7-19.1-59.7-14.9-84.1c0.1-0.6,0.2-1.2,0.2-1.8
		c0-5.9-4.8-10.7-10.7-10.7H35.2c-2.7,0-5.4-0.8-7.7-2.3c-6.4-4.3-8.1-12.9-3.8-19.2L77.4,198c1.6-2.4,2.2-5.3,1.6-8.1
		c-0.1-0.6-11.6-61.6,27.5-109.1c32.4-39.4,89.9-59.4,170.8-59.4V0C189.5,0,126.5,22.7,89.9,67.4C63,102.1,51.3,146.1,57.3,189.5
		L6,265.1c-3.9,5.8-6,12.6-6,19.6C0,304.2,15.7,320,35.2,320h26.5c-2.8,26.4-4.6,83.6,30.9,95.5c20.3,5.6,41.5,6.9,62.2,3.6
		L128.5,498c-0.4,1.1-0.5,2.2-0.5,3.4c0,5.9,4.8,10.7,10.7,10.7h234.7c0.7,0,1.3-0.1,2-0.2c5.8-1.1,9.6-6.7,8.5-12.5L383.3,496.7z"
		/>
	
		<linearGradient id="SVGID_2_" gradientUnits="userSpaceOnUse" x1="105.2148" y1="45.9132" x2="460.1052" y2="468.8551" gradientTransform="matrix(1 0 0 -1 0 511.8898)">
		<stop  offset="0" style="stop-color:#2164AE"/>
		<stop  offset="1" style="stop-color:#BFFF31"/>
	</linearGradient>
	<path class="st1" d="M448,0H298.7v21.3H448c23.6,0,42.7,19.1,42.7,42.7H213.3v21.3h277.3V288c0,23.6-19.1,42.7-42.7,42.7H202.7
		c-23.6,0-42.7-19.1-42.7-42.7V96h-21.3v192c0,35.3,28.7,64,64,64H448c35.3,0,64-28.7,64-64V64C511.9,28.7,483.3,0,448,0z"/>
	
		<linearGradient id="SVGID_3_" gradientUnits="userSpaceOnUse" x1="57.8856" y1="66.7604" x2="427.9641" y2="507.8027" gradientTransform="matrix(1 0 0 -1 0 511.8898)">
		<stop  offset="0" style="stop-color:#2164AE"/>
		<stop  offset="1" style="stop-color:#BFFF31"/>
	</linearGradient>
	<rect x="202.7" y="192" class="st2" width="117.3" height="21.3"/>
	
		<linearGradient id="SVGID_4_" gradientUnits="userSpaceOnUse" x1="123.6718" y1="24.4367" x2="485.4728" y2="455.6143" gradientTransform="matrix(1 0 0 -1 0 511.8898)">
		<stop  offset="0" style="stop-color:#2164AE"/>
		<stop  offset="1" style="stop-color:#BFFF31"/>
	</linearGradient>
	<rect x="341.3" y="192" class="st3" width="42.7" height="21.3"/>
	
		<linearGradient id="SVGID_5_" gradientUnits="userSpaceOnUse" x1="162.3594" y1="-5.7294" x2="524.1603" y2="425.448" gradientTransform="matrix(1 0 0 -1 0 511.8898)">
		<stop  offset="0" style="stop-color:#2164AE"/>
		<stop  offset="1" style="stop-color:#BFFF31"/>
	</linearGradient>
	<rect x="405.3" y="192" class="st4" width="42.7" height="21.3"/>
	
		<linearGradient id="SVGID_6_" gradientUnits="userSpaceOnUse" x1="157.1512" y1="-10.184" x2="527.2297" y2="430.8583" gradientTransform="matrix(1 0 0 -1 0 511.8898)">
		<stop  offset="0" style="stop-color:#2164AE"/>
		<stop  offset="1" style="stop-color:#BFFF31"/>
	</linearGradient>
	<rect x="330.7" y="234.7" class="st5" width="117.3" height="21.3"/>
	
		<linearGradient id="SVGID_7_" gradientUnits="userSpaceOnUse" x1="101.1089" y1="43.752" x2="462.9099" y2="474.9296" gradientTransform="matrix(1 0 0 -1 0 511.8898)">
		<stop  offset="0" style="stop-color:#2164AE"/>
		<stop  offset="1" style="stop-color:#BFFF31"/>
	</linearGradient>
	<rect x="266.7" y="234.7" class="st6" width="42.7" height="21.3"/>
	
		<linearGradient id="SVGID_8_" gradientUnits="userSpaceOnUse" x1="62.4213" y1="73.9182" x2="424.2223" y2="505.0958" gradientTransform="matrix(1 0 0 -1 0 511.8898)">
		<stop  offset="0" style="stop-color:#2164AE"/>
		<stop  offset="1" style="stop-color:#BFFF31"/>
	</linearGradient>
	<rect x="202.7" y="234.7" class="st7" width="42.7" height="21.3"/>
	
		<linearGradient id="SVGID_9_" gradientUnits="userSpaceOnUse" x1="81.0194" y1="66.2343" x2="435.8958" y2="489.1595" gradientTransform="matrix(1 0 0 -1 0 511.8898)">
		<stop  offset="0" style="stop-color:#2164AE"/>
		<stop  offset="1" style="stop-color:#BFFF31"/>
	</linearGradient>
	<rect x="202.7" y="277.3" class="st8" width="21.3" height="21.3"/>
	
		<linearGradient id="SVGID_10_" gradientUnits="userSpaceOnUse" x1="107.0949" y1="46.5412" x2="461.9713" y2="469.4665" gradientTransform="matrix(1 0 0 -1 0 511.8898)">
		<stop  offset="0" style="stop-color:#2164AE"/>
		<stop  offset="1" style="stop-color:#BFFF31"/>
	</linearGradient>
	<rect x="245.3" y="277.3" class="st9" width="21.3" height="21.3"/>
	
		<linearGradient id="SVGID_11_" gradientUnits="userSpaceOnUse" x1="133.2292" y1="26.7989" x2="488.1056" y2="449.7242" gradientTransform="matrix(1 0 0 -1 0 511.8898)">
		<stop  offset="0" style="stop-color:#2164AE"/>
		<stop  offset="1" style="stop-color:#BFFF31"/>
	</linearGradient>
	<rect x="288" y="277.3" class="st10" width="21.3" height="21.3"/>
	
		<linearGradient id="SVGID_12_" gradientUnits="userSpaceOnUse" x1="165.853" y1="2.1579" x2="520.7293" y2="425.0832" gradientTransform="matrix(1 0 0 -1 0 511.8898)">
		<stop  offset="0" style="stop-color:#2164AE"/>
		<stop  offset="1" style="stop-color:#BFFF31"/>
	</linearGradient>
	<rect x="341.3" y="277.3" class="st11" width="21.3" height="21.3"/>
	
		<linearGradient id="SVGID_13_" gradientUnits="userSpaceOnUse" x1="191.9872" y1="-17.5843" x2="546.8636" y2="405.3409" gradientTransform="matrix(1 0 0 -1 0 511.8898)">
		<stop  offset="0" style="stop-color:#2164AE"/>
		<stop  offset="1" style="stop-color:#BFFF31"/>
	</linearGradient>
	<rect x="384" y="277.3" class="st12" width="21.3" height="21.3"/>
	
		<linearGradient id="SVGID_14_" gradientUnits="userSpaceOnUse" x1="218.1215" y1="-37.3267" x2="572.9979" y2="385.5986" gradientTransform="matrix(1 0 0 -1 0 511.8898)">
		<stop  offset="0" style="stop-color:#2164AE"/>
		<stop  offset="1" style="stop-color:#BFFF31"/>
	</linearGradient>
	<rect x="426.7" y="277.3" class="st13" width="21.3" height="21.3"/>
	
		<linearGradient id="SVGID_15_" gradientUnits="userSpaceOnUse" x1="72.697" y1="53.7313" x2="436.6055" y2="487.4206" gradientTransform="matrix(1 0 0 -1 0 511.8898)">
		<stop  offset="0" style="stop-color:#2164AE"/>
		<stop  offset="1" style="stop-color:#BFFF31"/>
	</linearGradient>
	<rect x="394.7" y="32" class="st14" width="53.3" height="21.3"/>
	
		<linearGradient id="SVGID_16_" gradientUnits="userSpaceOnUse" x1="45.4227" y1="91.1829" x2="400.2991" y2="514.1082" gradientTransform="matrix(1 0 0 -1 0 511.8898)">
		<stop  offset="0" style="stop-color:#2164AE"/>
		<stop  offset="1" style="stop-color:#BFFF31"/>
	</linearGradient>
	<rect x="352" y="32" class="st15" width="21.3" height="21.3"/>
	
		<linearGradient id="SVGID_17_" gradientUnits="userSpaceOnUse" x1="19.2884" y1="110.9252" x2="374.1648" y2="533.8505" gradientTransform="matrix(1 0 0 -1 0 511.8898)">
		<stop  offset="0" style="stop-color:#2164AE"/>
		<stop  offset="1" style="stop-color:#BFFF31"/>
	</linearGradient>
	<rect x="309.3" y="32" class="st16" width="21.3" height="21.3"/>
	
		<linearGradient id="SVGID_18_" gradientUnits="userSpaceOnUse" x1="28.2903" y1="98.404" x2="388.276" y2="527.4181" gradientTransform="matrix(1 0 0 -1 0 511.8898)">
		<stop  offset="0" style="stop-color:#2164AE"/>
		<stop  offset="1" style="stop-color:#BFFF31"/>
	</linearGradient>
	<path class="st17" d="M202.7,117.3V160c0,5.9,4.8,10.7,10.7,10.7h96v-21.3H224V128h85.3v-21.3h-96
		C207.4,106.7,202.7,111.4,202.7,117.3z"/>
	
		<linearGradient id="SVGID_19_" gradientUnits="userSpaceOnUse" x1="108.9432" y1="36.254" x2="468.9291" y2="465.2685" gradientTransform="matrix(1 0 0 -1 0 511.8898)">
		<stop  offset="0" style="stop-color:#2164AE"/>
		<stop  offset="1" style="stop-color:#BFFF31"/>
	</linearGradient>
	<path class="st18" d="M341.3,149.3v21.3h96c5.9,0,10.7-4.8,10.7-10.7v-42.7c0-5.9-4.8-10.7-10.7-10.7h-96V128h85.3v21.3H341.3z"/>
</g>
</svg>
