<?xml version="1.0" encoding="utf-8"?>
<!-- Generator: Adobe Illustrator 22.1.0, SVG Export Plug-In . SVG Version: 6.00 Build 0)  -->
<svg version="1.1" id="Capa_1" xmlns="http://www.w3.org/2000/svg" xmlns:xlink="http://www.w3.org/1999/xlink" x="0px" y="0px"
	 viewBox="0 0 512 512" style="enable-background:new 0 0 512 512;" xml:space="preserve">
<style type="text/css">
	.st0{fill:url(#SVGID_1_);}
	.st1{fill:url(#SVGID_2_);}
	.st2{fill:url(#SVGID_3_);}
	.st3{fill:url(#SVGID_4_);}
</style>
<g>
	<linearGradient id="SVGID_1_" gradientUnits="userSpaceOnUse" x1="151.2984" y1="530.7785" x2="444.0373" y2="181.9059">
		<stop  offset="0" style="stop-color:#2164AE"/>
		<stop  offset="1" style="stop-color:#BFFF31"/>
	</linearGradient>
	<path class="st0" d="M256,413.2c-4,0-7.2-3.2-7.2-7.2s3.2-7.2,7.2-7.2s7.2,3.2,7.2,7.2S260,413.2,256,413.2z"/>
	<linearGradient id="SVGID_2_" gradientUnits="userSpaceOnUse" x1="5.9989" y1="416.0439" x2="296.7512" y2="69.5387">
		<stop  offset="0" style="stop-color:#2164AE"/>
		<stop  offset="1" style="stop-color:#BFFF31"/>
	</linearGradient>
	<path class="st1" d="M256,233.2c-37,0-67.2-30.1-67.2-67.2v-51.4l-3.3,0.6c-5.8,1.1-11.6,2.6-17.2,4.4c-0.7,0.2-1.5,0.4-2.3,0.4
		c-1.5,0-3-0.5-4.2-1.3c-1.9-1.3-3-3.5-3-5.8V106c0-37,30.1-67.2,67.2-67.2h90c4,0,7.2,3.2,7.2,7.2v120
		C323.2,203,293,233.2,256,233.2z M304,92.9c-12.8,13-29.8,20.2-48,20.2c-5,0-49.2,0-50.1,0l-2.8,0.1V166
		c0,29.1,23.7,52.8,52.8,52.8s52.8-23.7,52.8-52.8V88L304,92.9z M226,53.2c-26.5,0-49,19.8-52.4,46.1l-0.5,4l4-0.9
		c10.2-2.3,20.8-3.5,31.4-3.5H256c25,0,46.8-17.8,51.8-42.3l0.7-3.4H226z"/>
	<linearGradient id="SVGID_3_" gradientUnits="userSpaceOnUse" x1="164.4202" y1="550.843" x2="462.7067" y2="195.359">
		<stop  offset="0" style="stop-color:#2164AE"/>
		<stop  offset="1" style="stop-color:#BFFF31"/>
	</linearGradient>
	<path class="st2" d="M301,473.2c-4,0-7.2-3.2-7.2-7.2s3.2-7.2,7.2-7.2h105.4l26.4-105.7H79.2l26.4,105.7H211c4,0,7.2,3.2,7.2,7.2
		s-3.2,7.2-7.2,7.2H10c-4,0-7.2-3.2-7.2-7.2v-15c0-28.8,23.4-52.2,52.2-52.2c5.8,0,11.5,1,17,2.9l4.9,1.7L63,347.7
		c-0.5-2.2-0.1-4.4,1.3-6.1c1.4-1.8,3.4-2.8,5.6-2.8h43.8V336c0-53.6,43.6-97.2,97.2-97.2h90c53.6,0,97.2,43.6,97.2,97.2v2.8H442
		c2.2,0,4.3,1,5.6,2.8c1.4,1.8,1.8,4,1.3,6.1L435,403.4l4.9-1.7c5.5-1.9,11.2-2.9,17-2.9c28.8,0,52.2,23.4,52.2,52.2v15
		c0,4-3.2,7.2-7.2,7.2H301z M457,413.2c-10.1,0-19.6,3.9-26.8,11.1l-0.6,0.6l-8.5,34h73.7V451C494.8,430.1,477.9,413.2,457,413.2z
		 M55,413.2c-20.9,0-37.8,17-37.8,37.8v7.8h73.7l-8.5-34l-0.6-0.6C74.6,417.1,65.1,413.2,55,413.2z M200.6,253.8
		c-41.3,5.2-72.5,40.5-72.5,82.2v2.8h255.7V336c0-41.7-31.2-77-72.5-82.2l-3.2-0.4v7.6c0,28.8-23.4,52.2-52.2,52.2
		s-52.2-23.4-52.2-52.2v-7.6L200.6,253.8z M218.2,261c0,20.9,17,37.8,37.8,37.8s37.8-17,37.8-37.8v-7.8h-75.7v7.8H218.2z"/>
	<linearGradient id="SVGID_4_" gradientUnits="userSpaceOnUse" x1="182.0411" y1="554.1408" x2="474.78" y2="205.2682">
		<stop  offset="0" style="stop-color:#2164AE"/>
		<stop  offset="1" style="stop-color:#BFFF31"/>
	</linearGradient>
	<path class="st3" d="M256,473.2c-4,0-7.2-3.2-7.2-7.2s3.2-7.2,7.2-7.2s7.2,3.2,7.2,7.2S260,473.2,256,473.2z"/>
</g>
</svg>
