<?xml version="1.0" encoding="utf-8"?>
<!-- Generator: Adobe Illustrator 22.1.0, SVG Export Plug-In . SVG Version: 6.00 Build 0)  -->
<svg version="1.1" id="Layer_1" xmlns="http://www.w3.org/2000/svg" xmlns:xlink="http://www.w3.org/1999/xlink" x="0px" y="0px"
	 viewBox="0 0 512 512" style="enable-background:new 0 0 512 512;" xml:space="preserve">
<style type="text/css">
	.st0{fill:url(#SVGID_1_);}
	.st1{fill:url(#SVGID_2_);}
	.st2{fill:url(#SVGID_3_);}
</style>
<g id="money-coin">
	<linearGradient id="SVGID_1_" gradientUnits="userSpaceOnUse" x1="55.1863" y1="518.7459" x2="410.3547" y2="95.4727">
		<stop  offset="0" style="stop-color:#2164AE"/>
		<stop  offset="1" style="stop-color:#BFFF31"/>
	</linearGradient>
	<path class="st0" d="M456,288h-8v-72c0-13.3-10.7-24-24-24h-1l12.9-27.7c1.9-4,0.1-8.8-3.9-10.6c0,0,0,0,0,0l-304.5-142
		c-4-1.9-8.8-0.1-10.6,3.9L34.1,192.8C23.5,195.5,16,205,16,216v256c0,13.3,10.7,24,24,24h384c13.3,0,24-10.7,24-24v-72h8
		c22.1,0,40-17.9,40-40v-32C496,305.9,478.1,288,456,288z M127.9,29.6L418,164.8L405.3,192h-32.6c-6.3-11.3-9-24.3-7.8-37.2
		c0.3-3.4-1.5-6.6-4.6-8L178.8,62.1c-3.1-1.4-6.7-0.8-9.1,1.6c-13.5,13.8-32.5,20.8-51.7,18.8c-3.4-0.4-6.6,1.5-8,4.6l-30.6,65.6
		c-1.4,3.1-0.8,6.7,1.6,9.1c8.4,8.3,14.3,18.7,17.2,30.1h-46L127.9,29.6z M201.5,192c-4.4-17.1,5.9-34.5,23-38.8s34.5,5.9,38.8,23
		c1.3,5.2,1.3,10.6,0,15.8H201.5z M252.7,140.7c-24-11.2-52.6-0.8-63.8,23.3c-4.1,8.8-5.4,18.5-3.8,28.1h-70.4
		c-2.7-13.9-9.1-26.8-18.4-37.4l26-55.7c20.2,0.6,39.8-6.6,54.9-20l171.6,80c-0.3,11.4,1.9,22.6,6.3,33.1h-75.2
		C283.3,170.7,272.2,149.7,252.7,140.7L252.7,140.7z M432,472c0,4.4-3.6,8-8,8H40c-4.4,0-8-3.6-8-8V216c0-4.4,3.6-8,8-8h384
		c4.4,0,8,3.6,8,8v72h-40c-22.1,0-40,17.9-40,40v32c0,22.1,17.9,40,40,40h40V472z M480,360c0,13.3-10.7,24-24,24h-64
		c-13.3,0-24-10.7-24-24v-32c0-13.3,10.7-24,24-24h64c13.3,0,24,10.7,24,24V360z"/>
	<linearGradient id="SVGID_2_" gradientUnits="userSpaceOnUse" x1="167.4782" y1="630.6427" x2="526.5981" y2="202.6603">
		<stop  offset="0" style="stop-color:#2164AE"/>
		<stop  offset="1" style="stop-color:#BFFF31"/>
	</linearGradient>
	<path class="st1" d="M408,320c-13.3,0-24,10.7-24,24s10.7,24,24,24s24-10.7,24-24S421.3,320,408,320z M408,352c-4.4,0-8-3.6-8-8
		s3.6-8,8-8s8,3.6,8,8S412.4,352,408,352z"/>
	<linearGradient id="SVGID_3_" gradientUnits="userSpaceOnUse" x1="47.7633" y1="512.3959" x2="404.0188" y2="87.8271">
		<stop  offset="0" style="stop-color:#2164AE"/>
		<stop  offset="1" style="stop-color:#BFFF31"/>
	</linearGradient>
	<path class="st2" d="M246.9,337.6c17.3-4,25.1-9.5,25.1-17.6v-40c0-21.7-67.1-24-96-24c-86.6,0-96,16.8-96,24v20.9
		c-22.2,4.1-32,9.9-32,19.1v40c0,4.2,0.1,15.8,45.9,21.3C64,387.1,64,395.8,64,400v40c0,21.7,67.1,24,96,24s96-2.3,96-24v-18.6
		c47.9-5.4,48-16.6,48-21.4v-40C304,355.5,303.9,342.4,246.9,337.6z M240,360v-6.9c14.6,0.6,29,2.9,43,6.9c-14.8,4.1-30,6.4-45.3,7
		C239.3,365.1,240.1,362.5,240,360z M230.8,324.4c-18.2,2.5-36.5,3.7-54.8,3.6c-5.2,0-10.3-0.1-15.7-0.2c-39-1.3-59.3-6.9-64.3-9.9
		V295c21.7,7.9,60,9,80,9c42.8,0,66.7-4.1,80-9.1v23C248,321.4,239.5,323.6,230.8,324.4L230.8,324.4z M176,272
		c25.3-0.9,50.6,1.8,75.2,8c-24.6,6.2-49.9,8.9-75.2,8c-25.3,0.9-50.6-1.8-75.2-8C125.4,273.8,150.7,271.1,176,272z M80,317.2v2.8
		c0,1,0.2,2,0.5,2.9c-3.9-0.7-7.7-1.7-11.4-2.9C72.6,318.9,76.3,318,80,317.2z M64,335c21.7,7.9,60,9,80,9c5.5,0,11-0.1,16.5-0.2
		l0,0c5,0.2,10.2,0.2,15.5,0.2c16,0.1,32.1-0.8,48-2.6v16.4c-3.8,2.2-17.4,6.8-48.6,9c-18.3,1.3-36.7,1.5-55,0.5
		c-34.3-1.7-51.8-6.7-56.4-9.5V335z M112,394.7v5.3c-0.1,1.9,0.4,3.8,1.3,5.5c-9.6-0.9-19.1-2.8-28.3-5.5
		C93.8,397.4,102.8,395.6,112,394.7z M160,448c-46.5,0-73.8-6.2-80-10.1V415c21.7,7.9,60,9,80,9c8,0,16.2-0.2,24.2-0.6l0,0
		c7.9,0.4,15.9,0.6,23.8,0.6c11.1,0,21.7-0.5,32-1.2v15.1C233.8,441.8,206.5,448,160,448z M247.3,406.3c-12.1,1.1-25.7,1.7-39.3,1.7
		c-7.7,0-15.5-0.2-23.6-0.6c-34.3-1.7-51.8-6.7-56.4-9.5v-14.3c5.4,0.2,10.7,0.4,16,0.4c11,0,21.8-0.4,32-1.1
		c10.2,0.7,21,1.1,32,1.1c20,0,58.3-1.1,80-9v22.9C284.6,399.9,273.2,403.9,247.3,406.3z"/>
</g>
</svg>
