<?xml version="1.0" encoding="utf-8"?>
<!-- Generator: Adobe Illustrator 22.1.0, SVG Export Plug-In . SVG Version: 6.00 Build 0)  -->
<svg version="1.1" id="Layer_1" xmlns="http://www.w3.org/2000/svg" xmlns:xlink="http://www.w3.org/1999/xlink" x="0px" y="0px"
	 viewBox="0 0 512 512" style="enable-background:new 0 0 512 512;" xml:space="preserve">
<style type="text/css">
	.st0{fill:url(#SVGID_1_);}
	.st1{fill:url(#SVGID_2_);}
	.st2{fill:url(#SVGID_3_);}
	.st3{fill:url(#SVGID_4_);}
	.st4{fill:url(#SVGID_5_);}
</style>
<linearGradient id="SVGID_1_" gradientUnits="userSpaceOnUse" x1="31.5442" y1="522.1941" x2="432.3728" y2="44.505">
	<stop  offset="0" style="stop-color:#2164AE"/>
	<stop  offset="1" style="stop-color:#BFFF31"/>
</linearGradient>
<path class="st0" d="M370.8,117c0-3.8-3.5-6.8-6.3-6.8c-0.6,0-1.3,0.1-1.8,0.5L339.3,126c-2.1,1.4-2.9,3.6-2.9,5.2s0.7,3.8,2.9,5.2
	l23.5,15.3c0.5,0.4,1.1,0.5,1.8,0.5c2.8,0,6.3-3,6.3-6.8c0-1.6-0.6-3-1.7-3.6l-16.3-10.6l16.3-10.6C370.2,120,370.8,118.6,370.8,117
	z"/>
<linearGradient id="SVGID_2_" gradientUnits="userSpaceOnUse" x1="49.9118" y1="542.4987" x2="453.1691" y2="61.9154">
	<stop  offset="0" style="stop-color:#2164AE"/>
	<stop  offset="1" style="stop-color:#BFFF31"/>
</linearGradient>
<path class="st1" d="M417.4,85.4c-1.7,0-3.2,0.7-3.9,2.3L381,154.5c-0.3,0.6-0.5,1.2-0.5,1.8c0,2.3,2,4.9,5.2,4.9
	c1.8,0,3.5-0.9,4.2-2.3L422.5,92c0.3-0.6,0.4-1.2,0.4-1.8C422.9,87.3,420,85.4,417.4,85.4z"/>
<linearGradient id="SVGID_3_" gradientUnits="userSpaceOnUse" x1="80.2688" y1="564.498" x2="481.0973" y2="86.8092">
	<stop  offset="0" style="stop-color:#2164AE"/>
	<stop  offset="1" style="stop-color:#BFFF31"/>
</linearGradient>
<path class="st2" d="M464.2,126l-23.5-15.3c-0.5-0.4-1.1-0.5-1.8-0.5c-2.8,0-6.3,3-6.3,6.8c0,1.6,0.6,3,1.7,3.6l16.3,10.6
	l-16.3,10.6c-1,0.6-1.7,2-1.7,3.6c0,3.8,3.5,6.8,6.3,6.8c0.6,0,1.3-0.1,1.8-0.5l23.5-15.3c2.1-1.4,2.9-3.6,2.9-5.2
	S466.3,127.4,464.2,126z"/>
<linearGradient id="SVGID_4_" gradientUnits="userSpaceOnUse" x1="34.3915" y1="525.8647" x2="435.6678" y2="47.6421">
	<stop  offset="0" style="stop-color:#2164AE"/>
	<stop  offset="1" style="stop-color:#BFFF31"/>
</linearGradient>
<path class="st3" d="M475.7,37.3H314.3C305.9,15.5,284.8,0,260.1,0H151.8c-32,0-58,26-58,58v65.8c-6.5,5.6-9.5,14.3-7.9,23l4.3,23.4
	c1.5,8,5.8,12.2,9.1,14.2c3.7,2.3,7.8,3.1,11.6,3.1v4.2c0,21.1,12.3,44.4,33.8,63.9c4,3.7,8.3,7,12.5,10.1v12.6
	c0,3.8-2.7,7.1-6.5,7.8c-0.2,0-0.3,0.1-0.5,0.1c-0.1,0-13,3.4-29.8,8.2h-55c-6.2,0-12.1,2.6-16.4,7.1s-6.4,10.7-5.9,16.8l0.1,2.1
	C18.7,332.7,3.2,354.9,1.7,380c0,0.1,0,0.2,0,0.3L0,483.6c-0.1,7.6,2.8,14.7,8.1,20.1c5.3,5.4,12.4,8.4,20,8.4h355.7
	c7.6,0,14.7-3,20-8.4s8.2-12.5,8.1-20.1l-1.7-103.2c0-0.1,0-0.2,0-0.3c-1.5-25.9-17.9-48.5-43.7-60.6c-0.5-0.2-1-0.4-1.5-0.7l0-0.4
	c0.4-6.2-1.7-12.3-5.9-16.8c-4.2-4.5-10.2-7.1-16.4-7.1h-51.2c-16.8-4.8-29.7-8.1-29.8-8.2c-0.2,0-0.3-0.1-0.5-0.1
	c-3.8-0.7-6.5-4-6.5-7.8v-12.6c4.3-3.1,8.5-6.4,12.5-10.1c13.7-12.4,23.6-26.3,29.1-40.2h48.7l-8.5,34.4c-1.4,5.7,0.9,11.5,5.8,14.8
	c2.3,1.5,4.9,2.3,7.5,2.3c2.9,0,5.8-1,8.3-2.9l63.1-48.5h54.5c19.8,0,35.8-16.1,35.8-35.8V73.1C511.6,53.4,495.5,37.3,475.7,37.3z
	 M301,136.7c2.9-1,5.6-1.4,7.4-1.5c2.4,2.1,3.5,5.5,2.8,8.9l-4.2,23.3c-0.6,3.3-1.9,4-2.3,4.3c-0.9,0.5-2.2,0.8-3.7,0.8L301,136.7z
	 M108.8,58c0-23.7,19.3-43,43-43h108.3c23.7,0,43,19.3,43,43v62.8c-3.7,0.7-8.3,1.9-12.8,4.3V79.4c0-16.4-13.4-29.8-29.8-29.8h-20.3
	c-7,0-13.9,2.4-19.3,6.9l-2,1.6c-3.6,3-8.2,4.6-12.9,4.6s-9.3-1.6-12.9-4.6l-2-1.6c-5.4-4.4-12.3-6.9-19.3-6.9h-20.3
	c-16.4,0-29.8,13.4-29.8,29.8v45.7c-4.5-2.4-9.1-3.7-12.8-4.3V58z M107.2,171.7c-0.4-0.3-1.7-1-2.3-4.2l-4.2-23.4
	c-0.6-3.4,0.5-6.8,2.8-8.9c1.8,0.2,4.5,0.6,7.4,1.5l0,35.8C109.4,172.5,108.1,172.3,107.2,171.7z M40.9,491.6c0,1.9,0.3,3.7,0.7,5.4
	H28.1c-3.5,0-6.8-1.4-9.3-3.9c-2.5-2.5-3.8-5.8-3.8-9.3l1.7-103c1.1-18,11.1-33.6,27.7-43.8l9.2,128.5c0.2,2.4,0.7,4.6,1.6,6.7
	C46.9,474.7,40.9,482.4,40.9,491.6z M354.5,465.4l9.3-130.5c18.8,10.1,30.2,26.6,31.4,45.9l1.7,103c0,3.5-1.3,6.9-3.8,9.4
	c-2.5,2.5-5.8,3.9-9.3,3.9h-13.5c0.5-1.7,0.7-3.6,0.7-5.4c0-10.4-7.8-18.9-17.8-20.3C353.9,469.4,354.4,467.4,354.5,465.4z
	 M356,491.6c0,3-2.4,5.4-5.4,5.4H61.3c-3,0-5.4-2.4-5.4-5.4c0-3,2.4-5.4,5.4-5.4h289.3C353.6,486.1,356,488.6,356,491.6z
	 M348.1,311.7c1.4,1.5,2.1,3.5,2,5.5l-10.5,147.1c-0.3,3.8-3.5,6.8-7.3,6.8H75.9c-3.8,0-7.1-3-7.3-6.8L58.1,317.2
	c-0.1-2.1,0.5-4,2-5.5c1.4-1.5,3.3-2.3,5.4-2.3h277.3C344.8,309.3,346.7,310.2,348.1,311.7z M246.2,294.3h-80.5
	c4.1-4.2,6.6-9.9,6.6-16.1v-3.4c11.8,6.1,23.6,9.6,33.7,9.6s21.8-3.4,33.7-9.6v3.4C239.6,284.5,242.1,290.2,246.2,294.3z
	 M257.1,244.5c-16.7,15.2-36.8,25-51.1,25c-14.3,0-34.4-9.8-51.1-25c-18.4-16.6-28.9-35.9-28.9-52.8l0-47.3c0.1,0,0.2,0,0.3,0
	c1.4,0,2.7-0.3,4-0.8c3.9-1.6,6.4-5.4,6.4-9.7V79.4c0-8.2,6.6-14.8,14.8-14.8h20.3c3.6,0,7.1,1.2,9.8,3.5l2,1.6
	c6.3,5.1,14.2,8,22.4,8s16.1-2.8,22.4-8l2-1.6c2.8-2.3,6.3-3.5,9.8-3.5h20.3c8.2,0,14.8,6.6,14.8,14.8V134c0,4.2,2.5,8,6.4,9.7
	c1.4,0.6,2.9,0.8,4.3,0.8l0,47.3C286,208.6,275.4,227.8,257.1,244.5z M496.6,179.5c0,11.5-9.3,20.8-20.8,20.8h-57.1
	c-1.7,0-3.3,0.5-4.6,1.6l-62.2,47.8l9.9-40c0.6-2.2,0.1-4.6-1.4-6.4s-3.6-2.9-5.9-2.9h-54.2c0.4-2.9,0.7-5.8,0.7-8.7v-4.2
	c3.8,0,7.9-0.8,11.6-3.1c3.3-2.1,7.6-6.2,9.1-14.3l4.2-23.4c1.6-8.8-1.4-17.5-7.9-23V58c0-1.9-0.1-3.8-0.3-5.7h158
	c11.5,0,20.8,9.3,20.8,20.8V179.5z"/>
<linearGradient id="SVGID_5_" gradientUnits="userSpaceOnUse" x1="70.3016" y1="557.8164" x2="472.2462" y2="78.7975">
	<stop  offset="0" style="stop-color:#2164AE"/>
	<stop  offset="1" style="stop-color:#BFFF31"/>
</linearGradient>
<path class="st4" d="M205.9,424.4c15.5,0,28.2-12.6,28.2-28.2S221.5,368,205.9,368s-28.2,12.6-28.2,28.2S190.4,424.4,205.9,424.4z
	 M205.9,383c7.3,0,13.2,5.9,13.2,13.2c0,7.3-5.9,13.2-13.2,13.2c-7.3,0-13.2-5.9-13.2-13.2C192.7,388.9,198.7,383,205.9,383z"/>
</svg>
