<?xml version="1.0" encoding="utf-8"?>
<!-- Generator: Adobe Illustrator 22.1.0, SVG Export Plug-In . SVG Version: 6.00 Build 0)  -->
<svg version="1.1" id="Capa_1" xmlns="http://www.w3.org/2000/svg" xmlns:xlink="http://www.w3.org/1999/xlink" x="0px" y="0px"
	 viewBox="0 0 480 480" style="enable-background:new 0 0 480 480;" xml:space="preserve">
<style type="text/css">
	.st0{fill:url(#SVGID_1_);}
	.st1{fill:url(#SVGID_2_);}
	.st2{fill:url(#SVGID_3_);}
	.st3{fill:url(#SVGID_4_);}
	.st4{fill:url(#SVGID_5_);}
	.st5{fill:url(#SVGID_6_);}
	.st6{fill:url(#SVGID_7_);}
	.st7{fill:url(#SVGID_8_);}
	.st8{fill:url(#SVGID_9_);}
	.st9{fill:url(#SVGID_10_);}
	.st10{fill:url(#SVGID_11_);}
	.st11{fill:url(#SVGID_12_);}
</style>
<g>
	<g>
		<linearGradient id="SVGID_1_" gradientUnits="userSpaceOnUse" x1="118.1011" y1="553.2735" x2="430.1055" y2="181.4411">
			<stop  offset="0" style="stop-color:#2164AE"/>
			<stop  offset="1" style="stop-color:#BFFF31"/>
		</linearGradient>
		<rect x="232" y="400" class="st0" width="16" height="16"/>
	</g>
</g>
<g>
	<g>
		<linearGradient id="SVGID_2_" gradientUnits="userSpaceOnUse" x1="71.0323" y1="498.5721" x2="386.7093" y2="122.3628">
			<stop  offset="0" style="stop-color:#2164AE"/>
			<stop  offset="1" style="stop-color:#BFFF31"/>
		</linearGradient>
		<path class="st1" d="M472,416h-8V128c0-17.7-14.3-32-32-32h-48V32c0-17.7-14.3-32-32-32H128c-17.7,0-32,14.3-32,32v64H48
			c-17.7,0-32,14.3-32,32v288H8c-4.4,0-8,3.6-8,8v24c0,17.7,14.3,32,32,32h416c17.7,0,32-14.3,32-32v-24
			C480,419.6,476.4,416,472,416z M112,32c0-8.8,7.2-16,16-16h224c8.8,0,16,7.2,16,16v32H112V32z M112,80h256v232c0,8.8-7.2,16-16,16
			H128c-8.8,0-16-7.2-16-16V80z M128,344h224c17.7,0,32-14.3,32-32V144h32v224H64V144h32v168C96,329.7,110.3,344,128,344z M32,128
			c0-8.8,7.2-16,16-16h48v16H56c-4.4,0-8,3.6-8,8v240c0,4.4,3.6,8,8,8h368c4.4,0,8-3.6,8-8V136c0-4.4-3.6-8-8-8h-40v-16h48
			c8.8,0,16,7.2,16,16v288H312c-2.1,0-4.2,0.8-5.7,2.3L292.7,432H187.3l-13.7-13.7c-1.5-1.5-3.5-2.3-5.7-2.3H32V128z M464,448
			c0,8.8-7.2,16-16,16H32c-8.8,0-16-7.2-16-16v-16h148.7l13.7,13.7c1.5,1.5,3.5,2.3,5.7,2.3h112c2.1,0,4.2-0.8,5.7-2.3l13.7-13.7
			H464V448z"/>
	</g>
</g>
<g>
	<g>
		<linearGradient id="SVGID_3_" gradientUnits="userSpaceOnUse" x1="69.0316" y1="467.7522" x2="355.1472" y2="126.7729">
			<stop  offset="0" style="stop-color:#2164AE"/>
			<stop  offset="1" style="stop-color:#BFFF31"/>
		</linearGradient>
		<rect x="136" y="256" class="st2" width="208" height="16"/>
	</g>
</g>
<g>
	<g>
		<linearGradient id="SVGID_4_" gradientUnits="userSpaceOnUse" x1="77.3615" y1="480.291" x2="363.8062" y2="138.9195">
			<stop  offset="0" style="stop-color:#2164AE"/>
			<stop  offset="1" style="stop-color:#BFFF31"/>
		</linearGradient>
		<rect x="136" y="288" class="st3" width="192" height="16"/>
	</g>
</g>
<g>
	<g>
		<linearGradient id="SVGID_5_" gradientUnits="userSpaceOnUse" x1="69.021" y1="464.3669" x2="356.3036" y2="121.9968">
			<stop  offset="0" style="stop-color:#2164AE"/>
			<stop  offset="1" style="stop-color:#BFFF31"/>
		</linearGradient>
		<rect x="184" y="224" class="st4" width="160" height="16"/>
	</g>
</g>
<g>
	<g>
		<linearGradient id="SVGID_6_" gradientUnits="userSpaceOnUse" x1="-103.2642" y1="325.144" x2="208.7402" y2="-46.6885">
			<stop  offset="0" style="stop-color:#2164AE"/>
			<stop  offset="1" style="stop-color:#BFFF31"/>
		</linearGradient>
		<rect x="128" y="32" class="st5" width="16" height="16"/>
	</g>
</g>
<g>
	<g>
		<linearGradient id="SVGID_7_" gradientUnits="userSpaceOnUse" x1="-85.9007" y1="342.587" x2="226.1038" y2="-29.2454">
			<stop  offset="0" style="stop-color:#2164AE"/>
			<stop  offset="1" style="stop-color:#BFFF31"/>
		</linearGradient>
		<rect x="160" y="32" class="st6" width="16" height="16"/>
	</g>
</g>
<g>
	<g>
		<linearGradient id="SVGID_8_" gradientUnits="userSpaceOnUse" x1="-68.5371" y1="360.0301" x2="243.4673" y2="-11.8023">
			<stop  offset="0" style="stop-color:#2164AE"/>
			<stop  offset="1" style="stop-color:#BFFF31"/>
		</linearGradient>
		<rect x="192" y="32" class="st7" width="16" height="16"/>
	</g>
</g>
<g>
	<g>
		<linearGradient id="SVGID_9_" gradientUnits="userSpaceOnUse" x1="-4.1891" y1="427.673" x2="307.8153" y2="55.8406">
			<stop  offset="0" style="stop-color:#2164AE"/>
			<stop  offset="1" style="stop-color:#BFFF31"/>
		</linearGradient>
		<rect x="152" y="224" class="st8" width="16" height="16"/>
	</g>
</g>
<g>
	<g>
		<linearGradient id="SVGID_10_" gradientUnits="userSpaceOnUse" x1="-20.0246" y1="410.7965" x2="293.5891" y2="37.0462">
			<stop  offset="0" style="stop-color:#2164AE"/>
			<stop  offset="1" style="stop-color:#BFFF31"/>
		</linearGradient>
		<path class="st9" d="M212.8,134.4l-9.6-12.8l-32,24c-3.5,2.7-4.3,7.7-1.6,11.2c0.5,0.6,1,1.1,1.6,1.6l32,24l9.6-12.8L189.3,152
			L212.8,134.4z"/>
	</g>
</g>
<g>
	<g>
		<linearGradient id="SVGID_11_" gradientUnits="userSpaceOnUse" x1="24.3125" y1="460.1351" x2="337.9262" y2="86.3848">
			<stop  offset="0" style="stop-color:#2164AE"/>
			<stop  offset="1" style="stop-color:#BFFF31"/>
		</linearGradient>
		<path class="st10" d="M310.4,147.2c-0.5-0.6-1-1.1-1.6-1.6l-32-24l-9.6,12.8l23.5,17.6l-23.5,17.6l9.6,12.8l32-24
			C312.3,155.7,313.1,150.7,310.4,147.2z"/>
	</g>
</g>
<g>
	<g>
		<linearGradient id="SVGID_12_" gradientUnits="userSpaceOnUse" x1="-1.8349" y1="440.2244" x2="317.035" y2="60.21">
			<stop  offset="0" style="stop-color:#2164AE"/>
			<stop  offset="1" style="stop-color:#BFFF31"/>
		</linearGradient>
		<polygon class="st11" points="216.6,189 248.6,109 263.4,115 231.4,195 		"/>
	</g>
</g>
</svg>
