<?xml version="1.0" encoding="utf-8"?>
<!-- Generator: Adobe Illustrator 22.1.0, SVG Export Plug-In . SVG Version: 6.00 Build 0)  -->
<svg version="1.1" id="Layer_1" xmlns="http://www.w3.org/2000/svg" xmlns:xlink="http://www.w3.org/1999/xlink" x="0px" y="0px"
	 viewBox="0 0 512 512" style="enable-background:new 0 0 512 512;" xml:space="preserve">
<style type="text/css">
	.st0{fill:url(#SVGID_1_);}
	.st1{fill:url(#SVGID_2_);}
	.st2{fill:url(#SVGID_3_);}
	.st3{fill:url(#SVGID_4_);}
</style>
<g id="Outline">
	<linearGradient id="SVGID_1_" gradientUnits="userSpaceOnUse" x1="328.6838" y1="445.3218" x2="212.5934" y2="65.6074">
		<stop  offset="0" style="stop-color:#2164AE"/>
		<stop  offset="1" style="stop-color:#BFFF31"/>
	</linearGradient>
	<path class="st0" d="M240,116c0-6.6-5.4-12-12-12s-12,5.4-12,12s5.4,12,12,12C234.6,128,240,122.6,240,116z"/>
	<linearGradient id="SVGID_2_" gradientUnits="userSpaceOnUse" x1="375.8919" y1="416.5594" x2="259.8098" y2="36.8718">
		<stop  offset="0" style="stop-color:#2164AE"/>
		<stop  offset="1" style="stop-color:#BFFF31"/>
	</linearGradient>
	<path class="st1" d="M284,128c6.6,0,12-5.4,12-12s-5.4-12-12-12s-12,5.4-12,12C272,122.6,277.4,128,284,128z"/>
	<linearGradient id="SVGID_3_" gradientUnits="userSpaceOnUse" x1="333.45" y1="391.1198" x2="235.8102" y2="71.7545">
		<stop  offset="0" style="stop-color:#2164AE"/>
		<stop  offset="1" style="stop-color:#BFFF31"/>
	</linearGradient>
	<path class="st2" d="M256,160c13.2,0,24-10.8,24-24h-16c0,4.4-3.6,8-8,8s-8-3.6-8-8h-16C232,149.2,242.8,160,256,160z"/>
	<linearGradient id="SVGID_4_" gradientUnits="userSpaceOnUse" x1="322.9692" y1="467.565" x2="200.8563" y2="68.1516">
		<stop  offset="0" style="stop-color:#2164AE"/>
		<stop  offset="1" style="stop-color:#BFFF31"/>
	</linearGradient>
	<path class="st3" d="M412.4,315.2l-2.7-27c-1.3-12.9-7-24.9-16.1-34l-19.9-19.9l-17.9-17.9C345.2,205.9,331,200,316.1,200H288v-7.5
		c22-10.8,36.9-32.1,39.6-56.5h0.4c13.3,0,24-10.8,24-24c0-12.8-10.1-23.3-22.8-23.9c-0.2-13.2-4-26.1-11-37.3
		C312.2,30.2,293.4,16,272,16h-72c-4.4,0-8,3.6-8,8c0,7.4,1.7,14.8,5.1,21.4c-9.2,12.3-14.4,27.3-14.7,42.7
		c-13.2,0.9-23.2,12.4-22.2,25.6C161,126.2,171.4,136,184,136h0.4c2.6,24.4,17.6,45.7,39.6,56.5v7.5h-24c-22.1,0-40,17.9-40,40v128
		c0,4.4,3.6,8,8,8h32v76.7L189.7,463c-7.5,7.5-7.5,19.8,0,27.3c3.6,3.6,8.5,5.7,13.7,5.7h105.4c10.7,0,19.3-8.7,19.3-19.3
		c0-5.1-2-10-5.7-13.7L312,452.7v-58.4c23.4,26.5,63.8,29,90.3,5.6C426.8,378.4,431.1,341.9,412.4,315.2z M393.7,289.8l5.4,54.2
		h-24.2l-7-49.1c-0.3-2.1-1.4-4-3.1-5.3l-23.7-17.8l26.3-21.1l14.8,14.8C388.7,272.1,392.8,280.7,393.7,289.8L393.7,289.8z M216,392
		h32v56h-32V392z M216,368v-24h80v32h-32v-16h-16v16h-32V368z M340.2,291.1c-10.9,3.6-20.6,10-28.2,18.6v-38.8L340.2,291.1z
		 M264,392h32v56h-32V392z M352,304.7v18.4l-12.2,6.1l-16.2-8.5C331,312.2,341,306.6,352,304.7L352,304.7z M348.8,342.6l9.1-4.6
		l2.2,15.1c0.5,3.4,3.1,6.2,6.6,6.7h-14.5L348.8,342.6z M240,200v-1.8c10.5,2.4,21.5,2.4,32,0v1.8c0,4.1,1.6,8,4.4,11l-2.2,3.3
		c-6.7,10.1-20.3,12.8-30.4,6.1c-2.4-1.6-4.5-3.7-6.1-6.1l-2.2-3.3C238.4,208,240,204.1,240,200z M310.4,72c1,3.3,1.8,6.6,2.2,10.1
		l-8-10.1H310.4z M336,112c0,4.4-3.6,8-8,8v-15.6l0-0.4C332.4,104,336,107.6,336,112z M272,32c14.6,0,27.3,9.9,31,24h-63
		c-14.6,0-27.3-9.9-31-24H272z M198.7,82.8c1-8.5,3.9-16.6,8.4-23.8c2,1.9,4.2,3.6,6.5,5.2L198.7,82.8z M176,112
		c0-4.4,3.5-7.9,7.8-8l0.2,0.8V120C179.6,120,176,116.4,176,112z M200,128c0,0,0.1-19.7,0.3-21.5L227.8,72h56.3l27.6,34.5
		c0.2,1.8,0.3,21.5,0.3,21.5c0,30.9-25.1,56-56,56S200,158.9,200,128z M176,240c0-13.2,10.8-24,24-24h19.7l4.8,7.1
		c11.6,17.4,35.1,22.1,52.6,10.5c4.2-2.8,7.7-6.3,10.5-10.5l4.8-7.1h23.8c10.6,0,20.8,4.2,28.3,11.7l11.6,11.6l-28.4,22.8
		l-19.1-12.8c-3.7-2.5-8.6-1.5-11.1,2.2c-0.9,1.3-1.3,2.9-1.3,4.4v72h-80v-64c0-4.4-3.6-8-8-8h-32V240z M176,360v-88h24v88H176z
		 M200,476.7c0-0.9,0.4-1.7,1-2.3l10.3-10.3H248v16h-44.7C201.5,480,200,478.5,200,476.7z M308.7,480H264v-16h36.7l10.3,10.3
		c1.3,1.3,1.3,3.4,0,4.7C310.4,479.7,309.6,480,308.7,480z M315.4,334.4l17.3,9l4.2,21.6L321,380c-1-1.4-2-2.8-2.8-4.3
		C311.1,363,310,347.9,315.4,334.4L315.4,334.4z M337.9,394.6c-1.9-1-3.7-2.1-5.4-3.3l16.3-15.4h23.9l15.1,15.2
		C373.1,401.6,353.8,402.9,337.9,394.6L337.9,394.6z M399.1,379.8l-14.6-14.7l0.7-5.1h22.1C406.1,367.1,403.3,373.9,399.1,379.8
		L399.1,379.8z"/>
</g>
</svg>
