<?xml version="1.0" encoding="utf-8"?>
<!-- Generator: Adobe Illustrator 22.1.0, SVG Export Plug-In . SVG Version: 6.00 Build 0)  -->
<svg version="1.1" id="Layer_1" xmlns="http://www.w3.org/2000/svg" xmlns:xlink="http://www.w3.org/1999/xlink" x="0px" y="0px"
	 viewBox="0 0 141.1 354.7" style="enable-background:new 0 0 141.1 354.7;" xml:space="preserve">
<style type="text/css">
	.st0{fill:url(#SVGID_1_);}
	.st1{fill:url(#SVGID_2_);}
	.st2{fill:url(#SVGID_3_);}
	.st3{fill:url(#SVGID_4_);}
</style>
<g>
	
		<linearGradient id="SVGID_1_" gradientUnits="userSpaceOnUse" x1="90.1854" y1="79.9235" x2="31.511" y2="271.839" gradientTransform="matrix(1 0 0 -1 0 356.1102)">
		<stop  offset="0" style="stop-color:#2164AE"/>
		<stop  offset="1" style="stop-color:#BFFF31"/>
	</linearGradient>
	<path class="st0" d="M132.1,195.2l-7.8-67.4c0-0.1,0-0.2-0.1-0.3c-1-5.2-3.4-11.4-6-15.6l0,0v-1c0-0.4,0.1-0.8,0.1-1.1
		c0.1-1,0.1-1.7,0.1-2.3V94.2c0-3.3-1.4-6.5-3.7-8.9l-0.2-0.1c-2.7-2.1-5.5-3.2-8.3-3.2H96c1.3-2.8,2.2-5.7,2.8-8.7
		c1.5-0.7,2.6-1.8,3.6-2.8c0.8-0.8,1.2-1.8,1.7-3c0.2-0.5,0.4-1,0.7-1.5l0.1-0.3c1.3-4,1.7-9,1.3-11.6l-0.1-0.3l-0.1-0.3
		c-0.3-0.5-0.5-1-0.8-1.5c0.9-2.3,1.5-4.4,1.8-6.3v-0.1c0.4-3.7,0-7.7-0.4-11.1l-0.1-0.3c-1-3.7-2.5-8-5.4-10.4v-0.6l-1.1-0.6
		c-0.7-0.3-1.5-0.7-2.3-0.9c-1.6-3.1-4.4-5-7-6.5c-3.9-2.4-9.3-3.8-14-3.8C70,11,65,12.1,59.6,13.3l-0.7,0.1l-0.2,0.1
		c-0.5,0.2-1.1,0.3-1.9,0.4c-0.6,0.1-1.4,0.2-2.3,0.4c-1.4,0.4-2.9,0.7-3.9,0.7c-1.5,0-2.9,0-4.3-0.4c-1.9-0.4-3.8-0.8-5.6-1.5
		L40.4,13c-1.3-0.3-2.6-1-3.4-1.8c-1.6-1.6-4.5-1.1-6,0.4l-0.6,0.6v0.3c-0.2,0.2-0.3,0.6-0.4,0.9c-1.2,4.1-1.6,8.2-1.2,11.6
		c0.4,3.6,1.6,6.8,2.6,9c-1.1,3.6-1.4,8.2-0.6,12c0.3,2.4,1,4.6,2,6.9c-0.2,0.4-0.4,0.8-0.4,1.2c-0.4,2.1-0.1,5.2,0.8,9.4l0.1,0.3
		c0.8,2,1.6,4,2.4,5.7l0.1,0.1c1.2,2,2.8,3.4,4.8,4.1c0.8,3,1.8,5.8,3,8.2h-8.8c-3,0-6.2,1.2-8.7,3.2l-0.3,0.3
		c-2,2.5-3.2,5.7-3.2,8.7v12.5c-0.2,0.5-0.3,1.2-0.5,2.1c-0.1,0.2-0.1,0.6-0.2,1l-1.7,0.9l0.8,0.8c-2.9,5-5.2,11.7-6.1,16.2
		c0,0.1,0,0.2-0.1,0.3l-7.7,67.3c-0.1,1.3,0.2,2.5,1,3.5c0.2,0.3,0.5,0.5,0.8,0.8l-0.1,1.2c-0.5,3.9,0.8,7.8,3.4,10.8
		c2.6,2.9,6.4,4.6,10.3,4.6h4.3v93.6c0,1.1,0.1,2.2,0.4,3.4c-6.4,3.3-10.5,9.9-10.5,17.2c0,3.5,2.8,6.3,6.3,6.3h38.7
		c3.5,0,6.3-2.8,6.3-6.3v-6.4c0-3.4-1.3-6.5-3.6-8.9c0.6-1.6,1-3.3,1-5.1l2.3-74.5c0-1,1-1.9,2.2-1.9s2.2,0.8,2.2,1.9l2.3,74.4
		c0,1.8,0.3,3.5,1,5.1c-2.4,2.4-3.7,5.6-3.7,8.9v6.4c0,3.5,2.8,6.3,6.3,6.3h38.7c3.5,0,6.3-2.8,6.3-6.4c0-7.2-4.1-13.8-10.5-17.1
		c0.3-1.1,0.4-2.2,0.4-3.4V216h4.3c3.9,0,7.7-1.7,10.3-4.6c2.6-2.9,3.8-6.9,3.4-10.8l-0.1-1.2c0.3-0.2,0.6-0.5,0.8-0.8
		C131.9,197.7,132.3,196.4,132.1,195.2z M116.9,206.4h-4.7l-0.2-3.2c0.2-0.2,0.3-0.4,0.4-0.6c0.4-0.6,0.6-1.3,0.7-2.1h7.7l0.1,1.2
		c0.1,1.2-0.2,2.3-1,3.2C119.2,205.9,118.1,206.4,116.9,206.4z M112.9,328.2L112.9,328.2L112.9,328.2
		C112.9,328.3,112.9,328.3,112.9,328.2z M95.9,30.2c0.8,0.9,1.6,2.8,1.9,5.3l0.1,0.3c0.1,0.2,0.1,0.5,0.2,0.7
		c-0.2-0.5-0.5-1.1-0.8-1.7l-0.1-0.3l-1-1c-0.4-0.4-0.9-0.6-1.1-0.8H95l0,0c-0.5-0.5-1.2-0.7-1.6-0.9h-0.1L93,31.5l-0.7-0.1
		c-8.8-1.3-18.3,0.5-25.9,2c-8.3,1.7-16.8,3.5-22.7,0.6l-0.4-0.2h-1.7c-0.4,0-0.8,0.1-1.2,0.1c0-0.8-0.1-1.7-0.6-2.6l-0.1-0.2
		c-0.8-1.3-2.1-3.9-2.5-7.1v-0.1c-0.2-0.9-0.1-1.9,0-3c0.2,0.1,0.4,0.1,0.6,0.2c2.4,0.8,4.9,1.6,7.1,1.7c2.1,0.3,4.1,0.3,5.7,0.3
		c0.9,0,1.9-0.1,2.8-0.2c0.9-0.1,1.7-0.2,2.3-0.2h0.8l0.4-0.4c0.9-0.1,1.7-0.3,2.6-0.6c0.3-0.1,0.6-0.2,0.8-0.2
		c5.5-1.2,10.1-1.9,15.7-1.9h0.3c4.2,0.5,7.6,1.4,9.8,2.5c2.4,1.4,4,3,4.6,4.8c0.6,1.7,1.9,2.8,3.4,3v0.3L95.9,30.2L95.9,30.2z
		 M41.6,59.8c1,0.2,2.1,0,2.9-0.6c1.1-0.8,1.7-2,1.7-3.3L46,43.7c6.6,1.1,13.7-0.2,22-2.1c7.1-1.4,15.2-3,22.3-1.7
		c2.1,4.3,2.1,5.7,2.1,9.6v6.3c0,2.2,2,4,4.4,4h0.4c0.2,0,0.3,0,0.5,0c-0.2,1.1-0.4,2.2-0.8,3.2c-0.1,0.3-0.3,0.5-0.4,0.8
		s-0.3,0.7-0.4,0.9L96,64.8c-0.9-0.2-1.9,0-2.7,0.5c-0.9,0.5-1.6,1.4-2,2.5l-0.1,0.3v0.5c-1.1,5.2-2.2,8.8-4.4,12.2
		c-1.7,2.8-4.6,5-8.7,7.6c-0.8,0.4-2.2,1.1-4.3,1.8c-1.3,0.3-2.3,0.3-3.8,0.3c-1.4,0-2.8,0-4.1-0.3c-1.7-0.7-3.6-1.4-4.3-1.8
		c-3.6-2.4-6.4-4.5-8.5-7.3c-2.2-2.9-3.7-6.7-4.8-12.2l-0.1-0.2c-0.7-2.1-2.7-3.3-4.6-3c-0.1-0.1-0.2-0.3-0.2-0.4l-0.1-0.2
		c-0.8-1.2-1.4-2.5-1.7-3.6l-0.2-1c0-0.2-0.1-0.4-0.1-0.6C41.4,59.7,41.5,59.8,41.6,59.8z M41.1,103.9v50h-2.7v-50
		C38.4,103.9,41.1,103.9,41.1,103.9z M99.9,153.9v-50h2.7v50H99.9z M49.3,162.2l0.1-6.3v-49.2l4.3-0.9c2,1.3,3.9,2.4,6.3,3.4
		l0.2,0.1c3.8,1.1,7.2,1.7,10,1.7c3.7,0,7-0.8,10-1.7l0.2-0.1c2.1-0.9,4.4-2,6.5-3.5l4.1,1.2v47.5c0,0.1,0,0.2,0,0.5
		c0,1,0.1,3.5,0,5.1l-0.2,2.2l11.1-0.1l1.1,33.1H36l2.2-33H49.3z M77.5,101.2c-2.2,0.7-4.7,1.5-7.2,1.5c-2.4,0-5-0.7-7.1-1.4
		l-2.7-1.4c0.2-0.7,0.5-1.5,0.6-2.4c0.1,0.1,0.3,0.1,0.4,0.2c0.5,0.2,1.1,0.4,1.7,0.6l0.4,0.1c2,0.4,4.1,0.8,6.3,0.8
		c1.8,0,3.7-0.3,6.1-0.9c1.2-0.3,2.3-0.8,3.5-1.3c0.1,1,0.5,2,1,2.9C79.6,100.3,78.6,100.8,77.5,101.2z M110.1,97.3
		c-0.8-1.1-2-1.7-3.5-1.7h-11c-1.7,0-3.3,1.1-4,2.6l-1.7-0.5c-0.3-0.2-0.5-0.4-0.8-0.5c-0.2-0.1-0.3-0.3-0.5-0.4v-0.1l-0.4-0.4
		c0-0.2,0-0.5,0-0.8v-3.9l1.6-1.6h16.5c0.9,0,1.6,0.4,2.7,1.1c0.8,0.8,1.3,1.9,1.3,2.8v3.4H110.1z M52.9,95.6c0,0.2-0.1,0.5-0.2,0.7
		c0,0.1-0.1,0.2-0.1,0.3c0,0,0,0-0.1,0.1H51v1l0,0l-1.8,0.4c-0.6-1.6-2-2.7-3.7-2.7H34.1c-1.3,0-2.4,0.7-3.1,1.7v-3.2
		c0-1,0.5-2.1,1.4-2.9c0.4-0.4,1.5-1,2.5-1h15c0.9,0.9,2,1.7,3.1,2.5L52.9,95.6L52.9,95.6z M30.1,115.4v40.5c0,0.1,0,3,0.1,4.6v0.2
		L26.6,191h-9.4l7.1-61.6c0.6-3,2.1-7.4,3.8-11.1l0.1,0.7L30.1,115.4z M18.3,201.8l0.2-1.3h7.7c0.1,0.7,0.3,1.4,0.7,2
		c0.1,0.2,0.3,0.4,0.4,0.6l-0.3,3.3h-4.7c-1.2,0-2.3-0.5-3.1-1.4C18.5,204.1,18.1,203,18.3,201.8z M32.8,321
		c1.4,0.8,2.9,1.1,4.5,1.1h17.1c1,0,1.9-0.2,2.9-0.5c0.5,0.6,0.9,1.3,0.9,2.1v3.1H26.7C27.7,324.1,30,321.9,32.8,321z M57.8,235
		l-2.3,74.5v0.2c0,1.6-0.8,2.8-1.1,2.9h-17c-0.3-0.1-1.1-1.2-1.1-2.9v-96.1l0.5-8.7h65.7l0.5,8.4v96.3c0,1.6-0.8,2.8-1.1,2.9h-17
		c-0.3-0.1-1.1-1.1-1.1-2.9l-2.3-74.7c-0.2-6.3-5.4-11.2-11.8-11.2C63.2,223.8,58,228.7,57.8,235z M81.1,326.9v-3.1
		c0-0.8,0.3-1.5,0.9-2.1c1,0.3,1.9,0.5,2.9,0.5H102c1.5,0,3-0.4,4.5-1.1c2.9,0.9,5.1,3.1,6.1,5.8H81.1L81.1,326.9z M111,160.1
		c0-1.7-0.1-3.2,0-4.2v-38.8c1.7,3.5,3.1,8.3,3.8,12l7.2,61.8h-9.3l-1.6-29L111,160.1z"/>
	
		<linearGradient id="SVGID_2_" gradientUnits="userSpaceOnUse" x1="110.9043" y1="148.9719" x2="67.9701" y2="289.4034" gradientTransform="matrix(1 0 0 -1 0 356.1102)">
		<stop  offset="0" style="stop-color:#2164AE"/>
		<stop  offset="1" style="stop-color:#BFFF31"/>
	</linearGradient>
	<path class="st1" d="M57.2,71.8c0,5.4,5.4,9.6,12.4,9.6c6.9,0,12.4-4.2,12.4-9.6c0-2.7-2.2-4.9-4.9-4.9c-2.4,0-4.4,1.8-4.8,4.1
		c-0.4,0.2-1.3,0.6-2.6,0.6c-1.3,0-2.2-0.3-2.6-0.6c-0.4-2.3-2.4-4.1-4.8-4.1C59.4,66.9,57.2,69.1,57.2,71.8z"/>
	
		<linearGradient id="SVGID_3_" gradientUnits="userSpaceOnUse" x1="113.6055" y1="107.0276" x2="58.8492" y2="286.1274" gradientTransform="matrix(1 0 0 -1 0 356.1102)">
		<stop  offset="0" style="stop-color:#2164AE"/>
		<stop  offset="1" style="stop-color:#BFFF31"/>
	</linearGradient>
	<path class="st2" d="M54.4,62.5c3.5,0,6.2-3,6.2-7.1c0-4-2.7-7.1-6.2-7.1s-6.2,3-6.2,7.1S50.9,62.5,54.4,62.5z"/>
	
		<linearGradient id="SVGID_4_" gradientUnits="userSpaceOnUse" x1="137.8899" y1="127.0308" x2="83.1324" y2="306.1347" gradientTransform="matrix(1 0 0 -1 0 356.1102)">
		<stop  offset="0" style="stop-color:#2164AE"/>
		<stop  offset="1" style="stop-color:#BFFF31"/>
	</linearGradient>
	<path class="st3" d="M84.8,62.5c3.5,0,6.2-3,6.2-7.1c0-4-2.7-7.1-6.2-7.1s-6.2,3-6.2,7.1C78.6,59.5,81.3,62.5,84.8,62.5z"/>
</g>
</svg>
