<?xml version="1.0" encoding="utf-8"?>
<!-- Generator: Adobe Illustrator 22.1.0, SVG Export Plug-In . SVG Version: 6.00 Build 0)  -->
<svg version="1.1" id="Layer_1" xmlns="http://www.w3.org/2000/svg" xmlns:xlink="http://www.w3.org/1999/xlink" x="0px" y="0px"
	 viewBox="0 0 141 354" style="enable-background:new 0 0 141 354;" xml:space="preserve">
<style type="text/css">
	.st0{fill:url(#SVGID_1_);}
	.st1{fill:url(#SVGID_2_);}
	.st2{fill:url(#SVGID_3_);}
	.st3{fill:url(#SVGID_4_);}
</style>
<g>
	
		<linearGradient id="SVGID_1_" gradientUnits="userSpaceOnUse" x1="112.3466" y1="66.7029" x2="39.818" y2="303.9333" gradientTransform="matrix(1 0 0 -1 0 372.1102)">
		<stop  offset="0" style="stop-color:#2164AE"/>
		<stop  offset="1" style="stop-color:#BFFF31"/>
	</linearGradient>
	<path class="st0" d="M131.6,203.2l-7.8-67.4c0-0.1,0-0.2,0-0.3c-1.1-5.4-3.6-11.8-6.3-16c-0.4-0.6-1-1.1-1.6-1.3c0-0.5,0-1,0-1.5
		c0-0.6,0.1-1.2,0.3-1.7l0.3-1l-0.8-0.7c-0.4-0.3-0.7-0.6-1-0.8v-2.6c0-2.4-2-4.4-4.4-4.4H86.1v-6.4c9-4.4,15.7-12.4,18.5-22l0,0
		c3.5,0,6.7-1.4,9.1-3.9s3.7-5.7,3.7-9.2c0-1.7-0.4-3.4-1-4.9c0.7,0.5,1.6,0.8,2.5,0.8c2.4,0,4.4-2,4.4-4.4V19.8h1.4
		c2.4,0,4.4-2,4.4-4.4s-2-4.4-4.4-4.4H16c-2.4,0-4.4,2-4.4,4.4s2,4.4,4.4,4.4h15.7v32.1c-1.8,0.6-3.4,1.6-4.8,2.9
		c-2.5,2.4-3.9,5.7-3.9,9.1c0,3.5,1.3,6.7,3.7,9.2s5.9,3.9,9.4,3.9l0,0c2.8,9.6,9.5,17.6,18.5,22v6.5H30.3c-2.4,0-4.4,2-4.4,4.4v2.6
		c-0.6,0.5-1.3,1-2,1.7L23,115l0.7,1.1c0.1,0.2,0.2,0.4,0.3,0.5c-0.6,0.3-1.1,0.7-1.4,1.2c-3.3,4.9-6.1,12.9-7.1,17.8
		c0,0.1,0,0.2,0,0.3l-7.9,67.3c-0.1,1.1,0.2,2.2,0.9,3.1c0.2,0.3,0.5,0.5,0.7,0.7c0.1,0,0.1,0.1,0.2,0.1l-0.2,1.5
		c-0.5,3.8,0.7,7.5,3.2,10.4c2.5,2.8,6.1,4.5,9.9,4.5h4.8v94.1c0,1.2,0.2,2.4,0.5,3.6c-6.4,3.1-10.6,9.7-10.6,16.9
		c0,3.2,2.6,5.8,5.8,5.8h38.7c3.2,0,5.8-2.6,5.8-5.8v-6.4c0-3.3-1.3-6.4-3.7-8.8c0.7-1.7,1-3.4,1-5.2l2.3-74.5
		c0-1.3,1.2-2.4,2.7-2.4s2.7,1,2.7,2.4l2.3,74.4c0,1.8,0.4,3.6,1.1,5.2c-2.4,2.4-3.7,5.5-3.7,8.8v6.4c0,3.2,2.6,5.8,5.8,5.8h38.7
		c3.2,0,5.8-2.6,5.8-5.9c0-7.2-4.1-13.7-10.6-16.8c0.3-1.2,0.5-2.4,0.5-3.6v-94.1h4.8c3.8,0,7.4-1.6,9.9-4.5
		c2.5-2.8,3.7-6.6,3.3-10.4L130,207c0.1,0,0.1-0.1,0.2-0.1c0.3-0.2,0.6-0.5,0.8-0.7C131.5,205.5,131.8,204.4,131.6,203.2z
		 M115.4,338.5L115.4,338.5L115.4,338.5L115.4,338.5z M108.9,64.1c0,1.8-1.1,3.3-2.7,3.9v-5.6c0.3-0.1,0.6-0.2,0.9-0.4
		s0.6-0.4,0.8-0.7C108.5,62.1,108.9,63.1,108.9,64.1z M17.8,209.7l0.2-1.6h8.6c0,0.8,0.2,1.6,0.6,2.3c0.2,0.2,0.3,0.5,0.5,0.7
		l-0.2,3.9h-5.2c-1.3,0-2.6-0.6-3.5-1.6C18,212.4,17.6,211.1,17.8,209.7z M32.9,328.5c1.4,0.8,2.9,1.2,4.4,1.2h17.1c1,0,2-0.2,3-0.6
		c0.8,0.7,1.2,1.7,1.2,2.7v3.6H26C27,332.1,29.6,329.4,32.9,328.5z M58.3,243L56,317.5v0.1c0,2.1-1.1,3.4-1.6,3.4H37.3
		c-0.5,0-1.6-1.3-1.6-3.4v-96.1l0.6-9.2h66.6l0.6,8.9v96.3c0,2.1-1.1,3.4-1.6,3.4h-17c-0.4,0-1.6-1.2-1.6-3.4L81,243
		c-0.2-6-5.2-10.7-11.3-10.7C63.4,232.3,58.5,237,58.3,243z M80.6,335.4v-3.6c0-1,0.4-2,1.2-2.7c1,0.4,2,0.6,3,0.6h17.1
		c1.5,0,3-0.4,4.4-1.2c3.3,1,5.9,3.6,6.9,6.9H80.6z M112,210.4c0.4-0.7,0.7-1.5,0.7-2.3h8.6l0.2,1.7c0.2,1.3-0.2,2.6-1.1,3.6
		s-2.1,1.6-3.5,1.6h-5.2l-0.2-3.9C111.7,210.8,111.8,210.6,112,210.4z M110.4,168.2c-0.1-1.2-0.8-2.3-1.8-2.9
		c-1.1-0.6-2.4-0.5-3.4,0.1c-0.4,0.2-0.7,0.5-1,0.8l-0.2,0.2c-0.9,0.7-1.4,1.8-1.4,2.9l1.2,34.5H35.5l2.3-34.8c0-0.1,0-0.3,0-0.4
		c0-1.9-1.5-3.5-3.5-3.5c-0.3,0-0.6,0-0.9,0.1c-0.5,0.1-1,0.4-1.4,0.7c-0.4,0.3-0.7,0.8-0.9,1.2c-0.2,0.3-0.2,0.7-0.3,1l-3.7,31.2
		H16.7l7.2-62.2c0.6-2.9,2.1-7.5,3.9-11.4c3.1,10.1,9.5,18.6,18.4,24.4c10,6.4,21.9,8.6,33.4,6.1c15.2-3.3,27.7-14.5,32.6-29.2
		c1.3,3.2,2.3,7,2.9,9.9l7.2,62.4H112L110.4,168.2z M100.3,37.8l-8.1,2l-21.8,5.6l-21.8-5.6l-8.1-2v-18h59.9v18H100.3z M98.5,47.9
		c-0.1-0.2-0.1-0.4-0.2-0.6l2.2-0.5v4c-0.3-0.3-0.5-0.5-0.7-0.8l-0.2-0.2c-0.1-0.1-0.2-0.2-0.3-0.3c-0.3-0.4-0.5-0.8-0.7-1.2
		L98.5,47.9z M40.4,46.8l2.2,0.5c-0.3,0.8-0.7,1.5-1.2,2.2l-0.2,0.3c-0.2,0.3-0.5,0.6-0.8,0.9V46.8z M43.2,59.6
		c0.1-0.1,0.2-0.2,0.3-0.2l0.5-0.3c0.6-0.4,1.2-0.9,1.8-1.4l0.4-0.5c0.4-0.4,0.8-0.8,1.2-1.3l0.4-0.5c0.4-0.4,0.7-0.9,1-1.3
		c0.1-0.2,0.3-0.4,0.4-0.6c0.4-0.6,0.7-1.3,1-2l0.1-0.2v-0.2c0-0.1,0-0.1,0-0.2c0.2-0.5,0.4-1,0.5-1.5l18.5,4.7
		c0.7,0.2,1.4,0.2,2.1,0l18.2-4.5c0.1,0.3,0.2,0.5,0.3,0.8c0,0.3,0.1,0.7,0.4,1c0.9,2.1,2.2,4,3.8,5.6l0.4,0.4
		c0.4,0.3,0.7,0.6,1.1,0.9l0.8,0.6l1,0.7V67c0,1.6-0.1,3.3-0.4,4.9c-2.8,14.7-17,24.4-31.8,21.7c-1.7-0.3-3.3-0.8-4.9-1.4
		c-8.7-3.5-15-11.1-16.7-20.3c-0.3-1.6-0.4-3.3-0.4-4.9C43.2,67,43.2,59.6,43.2,59.6z M89.6,142.9c-8,5.1-17.6,6.9-26.9,4.8
		c-10.5-2.3-19.3-9.2-24.1-18.5c10.5,15,30.6,20.9,47.8,13c6.4-2.9,11.8-7.5,15.7-13.2C99.3,134.7,95,139.4,89.6,142.9z M99,115.9
		l-0.2,0.6c-2.5,7.6-7.8,13.8-15,17.4c-7.2,3.6-15.3,4.2-22.9,1.7c-7.9-2.7-14.4-8.6-17.8-16.1c-0.4-0.9-0.8-1.9-1.1-2.8
		c0-0.3-0.1-0.7-0.3-1.1c-0.1-0.4-0.3-0.9-0.4-1.4h13.9c0.1,0.4,0.3,0.8,0.4,1.2c0.1,0.4,0.2,0.6,0.3,0.8v0.1c0.3,0.6,0.6,1.2,1,1.8
		l0.4,0.7c0.5,0.8,1.1,1.5,1.8,2.2c3,3,6.9,4.6,11.2,4.6c1,0,2.1-0.1,3.3-0.3l0.8-0.2c0.6-0.1,1.3-0.3,2-0.6l0.9-0.4
		c0.5-0.3,1.1-0.5,1.6-0.9c0.3-0.2,0.7-0.5,1-0.7c0.5-0.3,0.9-0.7,1.3-1.1l0.7-0.7l0.1-0.1c0.4-0.4,0.7-0.8,1.1-1.3l0.6-0.9
		c0.4-0.5,0.7-1.1,0.9-1.7l0.4-0.9c0.2-0.5,0.4-1.1,0.6-1.6h13.8C99.3,114.8,99.1,115.3,99,115.9z M77.3,109.9
		c0,3.9-3.2,7.1-7.1,7.1s-7.1-3.2-7.1-7.1v-7.8c0.7,0.1,1.3,0.2,2,0.3h1.1c2.7,0.3,5.4,0.3,8,0h0.9c0.7,0,1.4-0.1,2-0.3v7.8H77.3z
		 M33.6,62.1c0.3,0.2,0.6,0.3,0.9,0.4V68c-1.6-0.6-2.7-2.1-2.7-3.9c0-1,0.3-1.9,1-2.7C33,61.7,33.3,61.9,33.6,62.1z M76.2,328.2
		L76.2,328.2L76.2,328.2L76.2,328.2z M109,52V19.9h5.6v35.7c0,0.2,0,0.4,0,0.5C113.2,54.3,111.3,52.8,109,52z"/>
	
		<linearGradient id="SVGID_2_" gradientUnits="userSpaceOnUse" x1="124.6814" y1="78.8385" x2="52.7787" y2="314.0215" gradientTransform="matrix(1 0 0 -1 0 372.1102)">
		<stop  offset="0" style="stop-color:#2164AE"/>
		<stop  offset="1" style="stop-color:#BFFF31"/>
	</linearGradient>
	<path class="st1" d="M54.4,70c3.2,0,5.7-2.8,5.7-6.6c0-3.8-2.4-6.6-5.7-6.6c-3.2,0-5.7,2.8-5.7,6.6C48.7,67.2,51.2,70,54.4,70z"/>
	
		<linearGradient id="SVGID_3_" gradientUnits="userSpaceOnUse" x1="150.325" y1="94.3959" x2="78.4218" y2="329.5807" gradientTransform="matrix(1 0 0 -1 0 372.1102)">
		<stop  offset="0" style="stop-color:#2164AE"/>
		<stop  offset="1" style="stop-color:#BFFF31"/>
	</linearGradient>
	<path class="st2" d="M84.8,70c3.2,0,5.7-2.8,5.7-6.6c0-3.8-2.4-6.6-5.7-6.6c-3.2,0-5.7,2.8-5.7,6.6C79.1,67.2,81.6,70,84.8,70z"/>
	
		<linearGradient id="SVGID_4_" gradientUnits="userSpaceOnUse" x1="122.3564" y1="116.2262" x2="62.2735" y2="312.7487" gradientTransform="matrix(1 0 0 -1 0 372.1102)">
		<stop  offset="0" style="stop-color:#2164AE"/>
		<stop  offset="1" style="stop-color:#BFFF31"/>
	</linearGradient>
	<path class="st3" d="M60.1,88.7c2.7,2.7,6.4,4.2,10.2,4.2l0,0c3.9,0,7.5-1.5,10.2-4.2c1.7-1.7,1.7-4.5,0-6.2
		c-0.8-0.8-1.9-1.3-3.1-1.3s-2.3,0.5-3.1,1.3c-2.2,2.2-5.9,2.2-8.1,0c-1.7-1.7-4.5-1.7-6.2,0C58.4,84.2,58.4,87,60.1,88.7z"/>
</g>
</svg>
