<?xml version="1.0" encoding="utf-8"?>
<!-- Generator: Adobe Illustrator 22.1.0, SVG Export Plug-In . SVG Version: 6.00 Build 0)  -->
<svg version="1.1" id="Capa_1" xmlns="http://www.w3.org/2000/svg" xmlns:xlink="http://www.w3.org/1999/xlink" x="0px" y="0px"
	 viewBox="0 0 720 512" style="enable-background:new 0 0 720 512;" xml:space="preserve">
<path d="M317.8,327.3l-56-19.5L243,295v-14.5c27.3-16.2,44.7-44.2,47.9-74.4c22.8,1.1,38.7-20.8,29.2-39.9v-61.1
	c0-44.2-24-59.6-31.4-63.3c-36-42.9-103.1-53.9-154-27.8h-0.1c-0.9,0.5-11.4,5.4-24.3,16.2c-2.5,2.1-22.9,25.1-24.7,27.9
	c-28.7,44-18.5,83.5-20.6,108.1c-9.6,19.1,6.3,40.9,29.2,39.9c3.7,35.6,25.7,56.1,26.2,57l0,0c3.9,3.7,10.9,11.5,24.5,19V295
	l-18.7,12.8c-73.1,25.4-65.7,22.3-71.6,25.9c-11.2,6.9-19,17.5-22.2,30.5c-0.6,2.6,0.4-2.3-22.4,112.3c-0.5,2.3-0.7,6.8-0.3,10.7
	C11.4,503,22.6,512,40.3,512h238.1c4.1,0,7.5-3.4,7.5-7.5s-3.4-7.5-7.5-7.5H93.1v-68.7c0-4.1-3.4-7.5-7.5-7.5s-7.5,3.4-7.5,7.5V497
	H40.4c-11.8,0-17.3-5-15.6-17.7C45.3,379,45.4,370.9,48.7,362.7c0.6-0.8,3.8-12.4,19.7-19.1c1.6-0.7,0.6-0.2,6.3-1.9
	c0.3-0.1-1.4,0.5,25.6-8.9l18,33.2c2,3.6,6.5,5,10.2,3c3.6-2,5-6.5,3-10.2l-16.8-31l11.5-4c5.5,10.2,54.6,100.7,59.9,110.6
	c3.3,6.1,11.7,6.4,15.5,1.1c0.7-1-3.3,6.2,60.5-111.7l11.5,4l-60.7,112.3c-8,14.8-29.3,14.8-37.3,0L148,389.6c-2-3.6-6.5-5-10.2-3
	c-3.6,2-5,6.5-3,10.2l27.4,50.5c13.7,25.3,50,25.2,63.7,0l61.9-114.5c26.9,9.3,25.3,8.8,25.6,8.9c5.3,1.6,4.7,1.3,6.3,1.9
	c0.6,0.2,1.1,0.5,1.7,0.7c0.4-4,0.8-8,1.2-11.9c0.1-1.2,0.5-2.4,1.1-3.4C321.3,328.3,319.4,327.8,317.8,327.3z M291.5,191.1v-26.2
	l0,0c8.6-0.5,16.4,5.4,16.4,13.1C307.9,185.8,300.1,191.5,291.5,191.1z M93.7,191.1c-8.6,0.5-16.4-5.4-16.4-13.1
	c0-7.8,7.8-13.6,16.4-13.1V191.1z M94.2,149.9c-4.9-0.2-9.7,0.7-14.1,2.5c0-25.8-3-53.9,18.2-86.1c2.3-3.5,18.8-22,21.9-24.7
	c49.8-41.9,123.8-31.1,158,11c0.8,1,1.9,1.8,3.1,2.3c1,0.4,23.8,10,23.8,50.2v47.3c-4.2-1.8-8.7-2.7-13.6-2.5v-24.5
	c0-6.2-4.7-11.4-10.9-12c-12.6-1.2-19.7-9.4-23.4-16.1c-4.6-8.4-15.7-10.4-23-4.2c-33.4,28.6-71.9,30-98.4,26.2
	C115.9,116.5,97.4,130.1,94.2,149.9z M251.9,151.2h-34.3c-8.1,0-15,5-18,12h-14c-2.9-7-9.9-12-18-12h-34.3c-6.6,0-12.5,3.3-16,8.4
	l-8.5-5c0.7-12.8,12.3-22.2,25-20.4c29.5,4.3,72.5,2.6,110.2-29.7h0.1c7.2,13,18.7,21.3,32.4,23.4v26.6l-8.6,5.1
	C264.4,154.5,258.6,151.2,251.9,151.2z M256.4,170.7v14.9c0,6.5-5.3,11.8-11.8,11.8h-19.7c-6.5,0-11.8-5.3-11.8-11.8v-14.9l0,0
	c0-2.4,2.1-4.5,4.5-4.5h34.3C254.4,166.2,256.4,168.2,256.4,170.7z M172.1,170.7v14.9c0,6.5-5.3,11.8-11.8,11.8h-19.7
	c-6.5,0-11.8-5.3-11.8-11.8v-14.9c0-2.4,2.1-4.5,4.5-4.5h34.3C170,166.2,172.1,168.2,172.1,170.7z M128.9,250
	c-24.3-28.3-19.6-55.8-20.2-78.1l5.1,3v10.7c0,14.8,12,26.8,26.8,26.8h19.7c14.8,0,26.8-12,26.8-26.8v-7.4h11v7.4
	c0,14.8,12,26.8,26.8,26.8h19.7c14.8,0,26.8-12,26.8-26.8V175l5.1-3v23.5c0,44.6-35.3,83.4-83.9,83.9c-0.1,0-1.1,0-1,0
	c-13-0.1-22.9-3.5-21.9-3.2C154.9,272.1,140.9,263.6,128.9,250z M194,334l-34-37.9v-7.3c15.7,5.4,31.9,6.7,47,4.5
	c4.2-0.6,8.8-1.6,11.4-2.4c0.6-0.2,4.3-1.1,9.7-3.2v8.3L194,334z M202.5,360.7l-3.3,6.8h-10.3l-3.3-6.8l8.4-6.2L202.5,360.7z
	 M174.2,381.3l-4.8-8.8l3.8-2.8l2.8,5.9L174.2,381.3z M162.3,359.2L139.5,317l11.8-8.1l31.6,35.2
	C181.1,345.4,164.1,357.8,162.3,359.2z M194,417.8l-9.9-18.3l5.5-17h8.8l5.5,17C200.8,405.3,197.9,410.7,194,417.8z M213.8,381.3
	l-1.9-5.7l2.8-5.9l3.8,2.8L213.8,381.3z M225.7,359.2c-1.9-1.4-18.2-13.4-20.6-15.1l31.6-35.2l11.8,8.1
	C240.9,331,230.6,350.1,225.7,359.2z"/>
<path d="M661.9,408.6c2-10.8,3.1-21.7,3.1-32.6c0-30.5-8-60.6-23-87c-11.1-19.4-17-42.1-17-65.7V152c0-75-61-136-136-136
	S353,77,353,152v71.4c0,23.3-6,46.3-17.4,66.4c-15.8,27.9-23.6,59.7-22.6,91.9c0.3,8.8,1.4,17.8,3.2,26.8
	c-27,23.7-43.3,58.1-43.3,95.5v8h432v-8C705,466.6,688.8,432.3,661.9,408.6z M329.1,381.1c-0.9-29.3,6.2-58.2,20.5-83.5
	c12.7-22.5,19.4-48.2,19.4-74.2V152c0-66.2,53.8-120,120-120s120,53.8,120,120v71.4c0,26.3,6.6,51.8,19.1,73.6
	c13.7,24,20.9,51.3,20.9,79c0,7.2-0.6,14.5-1.5,21.7c-6.7-4.4-13.9-8.2-21.5-11.4l-82.1-33.6c-9.1-3.7-14.9-12.4-14.9-22.2v-5.7
	c39.4-27.2,64-72.3,64-122v-28c0-22-9.8-42.5-27-56.2l-23.7-19l-4.4,8.8c-8.5,17-25.6,27.6-44.6,27.6H425c-22.1,0-40,17.9-40,40
	v26.8c0,49.6,24.6,94.8,64,122v5.7c0,9.8-5.9,18.5-14.9,22.2L352,386.3c-7.6,3.1-14.7,7-21.4,11.3
	C329.8,392.1,329.3,386.6,329.1,381.1L329.1,381.1z M553,168h-32c-10.4,0-19.2,6.7-22.5,16h-19c-3.3-9.3-12.1-16-22.5-16h-32
	c-13.2,0-24,10.8-24,24v-16c0-13.2,10.8-24,24-24h68.2c21.8,0,41.7-10.5,53.9-28l8.8,7.1c13.4,10.7,21,26.6,21,43.7V192
	C577,178.7,566.2,168,553,168z M561,192v8c0,8.8-7.2,16-16,16h-16c-8.8,0-16-7.2-16-16v-8c0-4.4,3.6-8,8-8h32
	C557.4,184,561,187.6,561,192z M465,192v8c0,8.8-7.2,16-16,16h-16c-8.8,0-16-7.2-16-16v-8c0-4.4,3.6-8,8-8h32
	C461.4,184,465,187.6,465,192z M433,232h16c17.6,0,32-14.4,32-32h16c0,17.6,14.4,32,32,32h16c17.6,0,32-14.4,32-32v2.8
	c0,56.2-35.2,106-88,124.7c-52.8-18.8-88-68.5-88-124.7V200C401,217.6,415.4,232,433,232L433,232z M486.5,343.6l2.5,0.8l2.5-0.8
	c7.6-2.5,14.8-5.6,21.8-9.2c0.8,8.4,4.1,16.1,9.5,22.3L489,382l-33.8-25.3c5.3-6.2,8.7-13.9,9.5-22.3
	C471.6,337.9,478.9,341,486.5,343.6L486.5,343.6z M440.2,367.5c0.6-0.2,1.2-0.6,1.7-0.9l35.6,26.7L451,425.1l-23.8-52.3L440.2,367.5
	z M489,404.5l2.6,3.1l12.2,88.4h-29.6l12.2-88.4L489,404.5z M500.5,393.3l35.6-26.7c0.6,0.3,1.1,0.6,1.7,0.9l12.9,5.3L527,425.1
	L500.5,393.3z M358.1,401.1l54.4-22.2l34.6,76l20-24l-9,65.1h-89v-48h-16v48h-63.7C292.3,453.9,318.6,417.2,358.1,401.1L358.1,401.1
	z M625,496v-48h-16v48h-89l-9-65.1l20,24l34.6-76l54.4,22.2c39.5,16.2,65.8,52.8,68.8,94.9H625z"/>
</svg>
