<?xml version="1.0" encoding="utf-8"?>
<!-- Generator: Adobe Illustrator 22.1.0, SVG Export Plug-In . SVG Version: 6.00 Build 0)  -->
<svg version="1.1" id="Capa_1" xmlns="http://www.w3.org/2000/svg" xmlns:xlink="http://www.w3.org/1999/xlink" x="0px" y="0px"
	 viewBox="0 0 512 512" style="enable-background:new 0 0 512 512;" xml:space="preserve">
<style type="text/css">
	.st0{fill:url(#SVGID_1_);}
	.st1{fill:url(#SVGID_2_);}
	.st2{fill:url(#SVGID_3_);}
	.st3{fill:url(#SVGID_4_);}
	.st4{fill:url(#SVGID_5_);}
</style>
<g>
	<linearGradient id="SVGID_1_" gradientUnits="userSpaceOnUse" x1="53.282" y1="487.97" x2="435.3024" y2="32.6958">
		<stop  offset="0" style="stop-color:#2164AE"/>
		<stop  offset="1" style="stop-color:#BFFF31"/>
	</linearGradient>
	<path class="st0" d="M511.4,38.4c0.6-9.9-3-19.6-10.1-26.7c-6.5-6.5-15.5-10.2-24.7-10.2c-0.4,0-0.8,0-1.1,0.1c-0.3,0-0.5,0-0.8,0
		l-0.1,0C431.5,4,389,13.1,348.3,28.6c-4.9,1.9-7.4,7.5-5.5,12.5c1.5,3.7,5.1,6.2,9,6.2c1,0,2.2-0.2,3.4-0.7
		c38.8-14.8,79.3-23.5,120.5-25.8h1c4.2,0,8.1,1.6,11,4.6c3.2,3.2,4.8,7.4,4.6,11.9c-5.8,99-47.6,192.3-117.9,262.7L274,400.3
		L112.7,239l100.6-100.6c19.5-19.5,41.1-37,64-52.1c2.2-1.4,3.7-3.6,4.2-6.1c0.5-2.5,0-5.1-1.4-7.3c-1.7-2.7-4.8-4.3-8.1-4.3
		c-1.9,0-3.7,0.5-5.3,1.6c-22,14.5-42.9,31.2-62,49.7l-0.2,0.2l-0.2-0.1c-19-8.5-39.4-12.8-60.5-12.8c-33,0-64.2,10.6-90.3,30.6
		C28.3,157,9.5,184.5,0.9,215c-1.1,3.6,0.2,7.7,3.2,10.1c1.6,1.4,3.9,2.2,6.1,2.2c1.5,0,3-0.4,4.5-1.1c18.4-9.6,39.1-14.7,59.8-14.7
		c11.3,0,22.5,1.5,33.3,4.4l0.6,0.2l-16.1,16.1c-1.8,1.9-2.8,4.3-2.8,6.8c0,2.5,1.1,5.1,2.8,6.9l39.6,39.6l-0.7,0.1
		c-34.8,5.5-62.8,32.4-69.5,67L40.4,461.2c-0.5,3.1,0.5,6.4,2.7,8.6c1.8,1.8,4.3,2.8,6.9,2.8c0.6,0,1.1,0,1.9-0.1l108.6-21.2
		c34.5-6.7,61.4-34.6,67-69.4l0.1-0.7l39.6,39.6c1.8,1.8,4.3,2.8,6.9,2.8s5-1,6.9-2.8l16-16l0.2,0.5c8.4,31.3,4.8,64.5-10.3,93.3
		c-1.8,3.4-1.4,7.6,1.1,10.6c1.9,2.2,4.6,3.5,7.5,3.5c0.4,0,0.8,0,1.2-0.1c0.2,0,0.3,0,0.5,0h0.4l0.3-0.1
		c30.5-8.7,57.9-27.4,77.3-52.7c20-26.1,30.6-57.4,30.6-90.3c0-21.2-4.3-41.6-12.8-60.5l-0.1-0.3l0.1-0.2
		C463.3,235.6,505.5,139.6,511.4,38.4z M313.2,485.2c10.3-30.9,10-64.9-0.8-95.7l-0.1-0.2l65.8-65.8l0.2,0.4
		c5.4,14.4,8.1,29.7,8.1,45.3c-0.1,49.1-28.7,94.8-72.8,116.4l-0.6,0.3L313.2,485.2z M123.4,200.5c-16-5.5-32.5-8.3-49.1-8.3
		c-15.8,0-31.5,2.5-46.6,7.5L27,200l0.3-0.7c21.6-44.2,67.2-72.8,116.4-72.8c15.8,0,31,2.8,45.2,8.2l0.4,0.2l-65.7,65.7L123.4,200.5
		z M169.1,380.5l-45.7,8.9l8.9-45.7c2.9-14.6,15.8-25.3,30.7-25.3h1.7l0.1,0l29.5,29.5l0,0.1C195.2,363.7,184.4,377.6,169.1,380.5z
		 M113.3,340.1l-11.6,59.7c-0.5,3.1,0.5,6.4,2.7,8.6c1.8,1.8,4.3,2.8,6.9,2.8c0.6,0,1.1,0,1.9-0.1l59.7-11.6
		c14.9-2.9,27.4-12.1,34.6-25.2l1.4,0.4c-2.7,28.5-23.8,52-52.1,57.6l-94.5,18.4l18.4-94.5c5.4-28.3,28.9-49.4,57.5-52.1l0.3,1.4
		C125.4,312.7,116.3,325.2,113.3,340.1z"/>
	<linearGradient id="SVGID_2_" gradientUnits="userSpaceOnUse" x1="60.9937" y1="493.1575" x2="441.938" y2="39.1657">
		<stop  offset="0" style="stop-color:#2164AE"/>
		<stop  offset="1" style="stop-color:#BFFF31"/>
	</linearGradient>
	<path class="st1" d="M193.9,237.4c0,45,36.7,81.7,81.7,81.7c45,0,81.7-36.7,81.7-81.7c0-45-36.7-81.7-81.7-81.7
		C230.6,155.7,193.9,192.4,193.9,237.4z M213.3,237.4c0-34.4,27.9-62.3,62.3-62.3c34.4,0,62.3,27.9,62.3,62.3s-27.9,62.3-62.3,62.3
		C241.2,299.7,213.3,271.8,213.3,237.4z"/>
	<linearGradient id="SVGID_3_" gradientUnits="userSpaceOnUse" x1="60.9936" y1="493.1575" x2="441.938" y2="39.1657">
		<stop  offset="0" style="stop-color:#2164AE"/>
		<stop  offset="1" style="stop-color:#BFFF31"/>
	</linearGradient>
	<path class="st2" d="M275.6,279.1c23,0,41.7-18.7,41.7-41.7s-18.7-41.7-41.7-41.7s-41.7,18.7-41.7,41.7S252.6,279.1,275.6,279.1z
		 M253.3,237.4c0-12.3,10-22.3,22.3-22.3c12.3,0,22.3,10,22.3,22.3s-10,22.3-22.3,22.3C263.3,259.7,253.3,249.7,253.3,237.4z"/>
	<linearGradient id="SVGID_4_" gradientUnits="userSpaceOnUse" x1="71.7369" y1="501.563" x2="452.681" y2="47.5715">
		<stop  offset="0" style="stop-color:#2164AE"/>
		<stop  offset="1" style="stop-color:#BFFF31"/>
	</linearGradient>
	<path class="st3" d="M417.8,158.4c8.4-8.5,13-19.7,13-31.6c0-12-4.6-23.2-13-31.6c-8.3-8.4-19.5-13-31.6-13c-12,0-23.2,4.6-31.6,13
		c-8.4,8.5-13,19.7-13,31.6c0,12,4.6,23.2,13,31.6c8.5,8.4,19.7,13,31.6,13C398.3,171.4,409.5,166.8,417.8,158.4z M411.5,126.8
		c0,6.9-2.5,13.1-7.4,17.9c-4.9,4.8-11.2,7.4-17.9,7.4c-6.9,0-13.1-2.5-17.9-7.4c-4.8-4.9-7.4-11.2-7.4-17.9
		c0-6.9,2.5-13.1,7.4-17.9c4.9-4.8,11.2-7.4,17.9-7.4c6.9,0,13.1,2.5,17.9,7.4C408.9,113.7,411.5,120.1,411.5,126.8z"/>
	<linearGradient id="SVGID_5_" gradientUnits="userSpaceOnUse" x1="-9.6467" y1="437.5939" x2="371.5142" y2="-16.6559">
		<stop  offset="0" style="stop-color:#2164AE"/>
		<stop  offset="1" style="stop-color:#BFFF31"/>
	</linearGradient>
	<path class="st4" d="M310.8,65.4c2.6,0,5-1,6.9-2.9c1.8-1.9,2.8-4.3,2.8-6.8c0-2.5-1.1-5.1-2.9-6.9c-1.9-1.8-4.3-2.8-6.8-2.8
		c-2.5,0-5.1,1.1-6.9,2.9c-1.8,1.9-2.8,4.3-2.8,6.8c0,2.5,1.1,5.1,2.9,6.9C305.9,64.4,308.3,65.4,310.8,65.4z"/>
</g>
</svg>
