<svg id="_x33_0" enable-background="new 0 0 64 64" height="512" viewBox="0 0 64 64" width="512" xmlns="http://www.w3.org/2000/svg"><g><path d="m60.114 30.909c1.8-1.356 2.886-3.464 2.886-5.779 0-2.273-1.086-4.445-2.904-5.809l-1.096-.821v-5.5c0-6.617-5.383-12-12-12-3.542 0-6.72 1.552-8.919 4h-34.081c-1.654 0-3 1.346-3 3v52c0 1.654 1.346 3 3 3h52c1.654 0 3-1.346 3-3v-11h1.382c1.444 0 2.618-1.174 2.618-2.618 0-.404-.096-.809-.276-1.171l-2.106-4.211h2.382v-2.735c0-2.766-1.052-5.376-2.886-7.356zm-13.114-27.909c5.514 0 10 4.486 10 10v6.5l1.896 1.421c1.317.989 2.104 2.562 2.104 4.209 0 1.817-.921 3.46-2.426 4.421-.135-.099-.26-.21-.4-.304-1.183-.789-2.491-1.331-3.886-1.61l-2.472-.494-.591-2.363c2.263-1.415 3.775-3.921 3.775-6.78v-4.245c0-.88-.575-1.649-1.433-1.914-2.155-.665-4.236-1.924-5.86-3.548l-.707-.707-.707.707c-1.624 1.624-3.705 2.884-5.861 3.548-.857.265-1.432 1.034-1.432 1.914v4.245c0 2.859 1.512 5.365 3.774 6.78l-.591 2.363-2.472.494c-1.395.279-2.703.821-3.886 1.61-.141.094-.265.205-.4.304-1.504-.961-2.425-2.604-2.425-4.421 0-1.647.787-3.22 2.104-4.209l1.896-1.421v-6.5c0-5.514 4.486-10 10-10zm-10.064 27.912c.801-.534 1.674-.92 2.597-1.169l5.68 9.257h-12.213v-.735c0-2.961 1.471-5.71 3.936-7.353zm8.17 4.088h3.791l-1.897 3.088zm5.019-2h-6.246l-2.271-3.702 2.209-.442.805-3.218c.751.235 1.55.362 2.378.362s1.627-.127 2.379-.361l.805 3.218 2.214.443zm-3.125-9c-3.309 0-6-2.691-6-6l.021-4.248c2.158-.665 4.249-1.852 5.979-3.381 1.73 1.53 3.823 2.716 6 3.383v4.246c0 3.309-2.691 6-6 6zm10 36c0 .551-.449 1-1 1h-52c-.551 0-1-.449-1-1v-52c0-.551.449-1 1-1h32.624c-1.026 1.768-1.624 3.813-1.624 6v5.5l-1.096.822c-1.818 1.364-2.904 3.535-2.904 5.808 0 2.308 1.08 4.41 2.889 5.776-1.836 1.98-2.889 4.592-2.889 7.359v2.735h24.382l-2.105 4.211c-.181.362-.277.767-.277 1.171 0 1.444 1.174 2.618 2.618 2.618h1.382zm1.553-18.658 2.382 4.764c.043.085.065.181.065.276 0 .341-.277.618-.618.618h-4.764c-.341 0-.618-.277-.618-.618 0-.095.022-.191.065-.276l2.382-4.764c.106-.211.317-.342.553-.342s.447.131.553.342zm2.447-2.342h-12.213l5.684-9.257c.921.249 1.793.635 2.593 1.168 2.465 1.644 3.936 4.393 3.936 7.354z"/><path d="m27 55h-2v-10h-8v10h-2v-8h-8v10h28v-14h-8zm-14 0h-4v-6h4zm6-8h4v8h-4zm10-2h4v10h-4z"/><path d="m41 55h2v2h-2z"/><path d="m45 55h2v2h-2z"/><path d="m49 55h2v2h-2z"/><path d="m16.8 11.6-1.6-1.2-5.308 7.078-2.185-2.185-1.414 1.414 3.815 3.815z"/><path d="m7.707 30.707 3.293-3.293 3.293 3.293 1.414-1.414-3.293-3.293 3.293-3.293-1.414-1.414-3.293 3.293-3.293-3.293-1.414 1.414 3.293 3.293-3.293 3.293z"/><path d="m19 15h4v2h-4z"/><path d="m25 15h4v2h-4z"/><path d="m16.8 33.6-1.6-1.2-5.308 7.078-2.185-2.185-1.414 1.414 3.815 3.815z"/><path d="m19 35h4v2h-4z"/><path d="m25 35h4v2h-4z"/><path d="m19 25h10v2h-10z"/></g></svg>